<svg xmlns="http://www.w3.org/2000/svg" width="2048" height="1136" viewBox="0 0 2048 1136" version="1.1"><path d="M 1028.250 53.739 C 1031.412 53.937, 1036.588 53.937, 1039.750 53.739 C 1042.912 53.541, 1040.325 53.378, 1034 53.378 C 1027.675 53.378, 1025.088 53.541, 1028.250 53.739 M 1017.750 85.743 C 1021.737 85.932, 1028.263 85.932, 1032.250 85.743 C 1036.237 85.553, 1032.975 85.397, 1025 85.397 C 1017.025 85.397, 1013.763 85.553, 1017.750 85.743 M 779.395 312.500 C 779.396 320.200, 779.553 323.218, 779.743 319.206 C 779.934 315.195, 779.932 308.895, 779.741 305.206 C 779.549 301.518, 779.393 304.800, 779.395 312.500 M 1021.250 387.742 C 1024.963 387.934, 1031.037 387.934, 1034.750 387.742 C 1038.463 387.549, 1035.425 387.392, 1028 387.392 C 1020.575 387.392, 1017.538 387.549, 1021.250 387.742 M 1357.120 444.905 C 1356.070 445.569, 1355.924 446.943, 1356.511 450.639 L 1357.282 455.500 1358.622 450.500 C 1360.503 443.481, 1360.338 442.867, 1357.120 444.905 M 1020.304 511.747 C 1026.247 511.924, 1035.697 511.923, 1041.304 511.745 C 1046.912 511.567, 1042.050 511.422, 1030.500 511.423 C 1018.950 511.424, 1014.362 511.570, 1020.304 511.747 M 713.475 946 C 713.475 986.425, 713.598 1002.962, 713.750 982.750 C 713.901 962.538, 713.901 929.462, 713.750 909.250 C 713.598 889.038, 713.475 905.575, 713.475 946 M 1178.966 906.708 L 1182.947 907.112 1183.265 921.557 L 1183.583 936.002 1183.542 921.251 L 1183.500 906.500 1179.243 906.402 L 1174.985 906.304 1178.966 906.708 M 518.032 910.250 C 518.061 912.313, 518.172 912.357, 519.369 910.781 C 520.461 909.344, 522.792 909.011, 533.588 908.748 L 546.500 908.435 532.250 908.217 C 518.066 908.001, 518 908.010, 518.032 910.250 M 1048.693 908.640 C 1048.312 909.022, 1048.087 912.746, 1048.193 916.917 L 1048.385 924.500 1048.740 918.250 C 1049.092 912.059, 1049.124 912, 1052.079 912 C 1053.809 912, 1055.305 911.370, 1055.638 910.500 C 1056.087 909.332, 1058.069 909, 1064.607 909 C 1078.321 909, 1077 901.538, 1077 979 L 1077 1045 1063.044 1045 L 1049.088 1045 1048.718 1037.750 L 1048.349 1030.500 1048.424 1038 L 1048.500 1045.500 1063 1045.500 L 1077.500 1045.500 1077.500 977 L 1077.500 908.500 1063.443 908.224 C 1055.712 908.072, 1049.074 908.259, 1048.693 908.640 M 1124.480 908.734 C 1132.818 908.991, 1135.658 909.425, 1136.280 910.536 C 1136.731 911.341, 1138.460 912, 1140.123 912 C 1142.464 912, 1143.071 911.605, 1142.811 910.250 C 1142.510 908.682, 1140.966 908.495, 1127.988 908.448 C 1117.134 908.409, 1116.255 908.481, 1124.480 908.734 M 1208.470 909.222 C 1208.202 909.925, 1208.099 940.875, 1208.241 978 L 1208.500 1045.500 1223 1045.500 L 1237.500 1045.500 1237.517 1005 L 1237.534 964.500 1237.256 1004.750 L 1236.978 1045 1222.989 1045 L 1209 1045 1209 977 L 1209 909 1220.393 909 C 1229.598 909, 1231.897 909.288, 1232.362 910.500 C 1232.678 911.325, 1233.824 912, 1234.908 912 C 1236.444 912, 1236.973 912.828, 1237.302 915.750 C 1237.560 918.044, 1237.681 917.365, 1237.612 914 L 1237.500 908.500 1223.229 908.222 C 1212.364 908.011, 1208.842 908.250, 1208.470 909.222 M 1368.460 909.250 C 1368.197 909.938, 1368.099 940.875, 1368.241 978 L 1368.500 1045.500 1383 1045.544 L 1397.500 1045.588 1383.250 1045.267 L 1369 1044.945 1369 976.973 L 1369 909 1381.393 909 C 1391.487 909, 1393.893 909.278, 1394.362 910.500 C 1395.198 912.680, 1397 912.338, 1397 910 C 1397 908.095, 1396.333 908, 1382.969 908 C 1372.665 908, 1368.810 908.332, 1368.460 909.250 M 1444.416 908.733 C 1452.867 908.995, 1455.589 909.423, 1456.472 910.630 C 1457.883 912.561, 1462.500 912.078, 1462.500 910 C 1462.500 908.738, 1460.199 908.492, 1448 908.448 C 1437.313 908.409, 1436.370 908.485, 1444.416 908.733 M 1628 909.456 L 1624.500 910.759 1627.171 911.468 C 1630.881 912.453, 1633.416 911.793, 1633.812 909.739 C 1634.202 907.713, 1632.855 907.647, 1628 909.456 M 1703.486 908.748 C 1709.153 908.992, 1711.709 909.515, 1712.286 910.546 C 1713.535 912.778, 1720.201 912.414, 1722.268 910 C 1723.970 908.012, 1723.893 908.001, 1709.740 908.201 C 1700.653 908.330, 1698.390 908.527, 1703.486 908.748 M 1585.579 958 C 1585.202 960.475, 1584.645 963.850, 1584.341 965.500 C 1583.556 969.769, 1585.389 967.463, 1586.839 962.358 C 1587.574 959.771, 1587.687 957.331, 1587.140 955.858 C 1586.362 953.762, 1586.189 954, 1585.579 958 M 460.136 960.737 L 460 963.975 424.250 964.250 L 388.500 964.526 424.281 964.763 C 462.886 965.019, 461.736 965.175, 460.715 959.823 C 460.377 958.047, 460.240 958.263, 460.136 960.737 M 253.750 964.749 C 263.788 964.912, 280.213 964.912, 290.250 964.749 C 300.288 964.585, 292.075 964.452, 272 964.452 C 251.925 964.452, 243.713 964.585, 253.750 964.749 M 835.685 964.748 C 845.138 964.912, 860.888 964.913, 870.685 964.749 C 880.483 964.585, 872.750 964.451, 853.500 964.450 C 834.250 964.450, 826.233 964.584, 835.685 964.748 M 1530.238 1005.750 L 1530 1046 1544.250 1045.781 L 1558.500 1045.561 1544.761 1045.253 L 1531.023 1044.944 1530.750 1005.222 L 1530.476 965.500 1530.238 1005.750 M 388.667 984.667 C 388.300 985.033, 388 985.933, 388 986.667 C 388 987.764, 397.088 987.957, 439.250 987.760 L 490.500 987.519 441.534 987.250 C 399.382 987.018, 392.453 986.773, 391.735 985.490 C 390.840 983.891, 389.738 983.595, 388.667 984.667 M 261.250 987.749 C 275.413 987.906, 298.588 987.906, 312.750 987.749 C 326.913 987.593, 315.325 987.465, 287 987.465 C 258.675 987.465, 247.088 987.593, 261.250 987.749 M 815.667 987.667 C 815.300 988.033, 815.007 988.821, 815.015 989.417 C 815.024 990.066, 815.346 990.003, 815.819 989.259 C 816.426 988.304, 828.429 987.957, 868.053 987.750 L 919.500 987.481 867.917 987.241 C 839.546 987.108, 816.033 987.300, 815.667 987.667 M 302.980 1006.250 C 301.984 1008.304, 302.015 1008.345, 303.329 1006.717 C 304.604 1005.138, 306.502 1004.948, 319.963 1005.055 C 328.320 1005.121, 335.423 1004.911, 335.746 1004.588 C 336.069 1004.264, 329.074 1004, 320.202 1004 C 304.463 1004, 304.044 1004.055, 302.980 1006.250 M 456.185 1005.750 C 456.628 1008.085, 462 1008.720, 463.536 1006.620 C 464.420 1005.411, 467.192 1004.998, 476.085 1004.748 C 486.298 1004.461, 485.833 1004.405, 471.677 1004.214 C 457.082 1004.017, 455.879 1004.136, 456.185 1005.750 M 885.598 1005.741 C 886.850 1006.993, 887.456 1007.133, 887.753 1006.241 C 888.387 1004.340, 899.621 1004.571, 900.362 1006.500 C 901.234 1008.773, 910.577 1008.571, 911.893 1006.250 C 912.822 1004.610, 912.981 1004.626, 914.410 1006.500 C 915.919 1008.477, 915.937 1008.475, 915.968 1006.250 C 916 1004.009, 915.938 1004, 899.929 1004 C 884.654 1004, 883.943 1004.086, 885.598 1005.741 M 576 1021.757 C 576 1023.783, 578.413 1024.246, 584.185 1023.327 L 589.482 1022.484 582.741 1021.468 C 577.343 1020.654, 576 1020.712, 576 1021.757 M 1797.624 1043.538 C 1796.734 1045.856, 1798.389 1046.086, 1813.548 1045.749 L 1827.500 1045.439 1812.781 1045.219 C 1800.166 1045.031, 1798.145 1044.786, 1798.638 1043.500 C 1798.955 1042.675, 1798.989 1042, 1798.714 1042 C 1798.439 1042, 1797.948 1042.692, 1797.624 1043.538 M 55.186 1045.748 C 64.363 1045.913, 79.663 1045.913, 89.186 1045.749 C 98.709 1045.584, 91.200 1045.449, 72.500 1045.449 C 53.800 1045.449, 46.009 1045.583, 55.186 1045.748 M 707.318 1045.749 C 719.317 1045.909, 738.667 1045.909, 750.318 1045.749 C 761.968 1045.589, 752.150 1045.458, 728.500 1045.458 C 704.850 1045.459, 695.318 1045.590, 707.318 1045.749 M 1120.750 1045.743 C 1124.737 1045.932, 1131.263 1045.932, 1135.250 1045.743 C 1139.237 1045.553, 1135.975 1045.397, 1128 1045.397 C 1120.025 1045.397, 1116.763 1045.553, 1120.750 1045.743 M 1311.750 1045.743 C 1315.737 1045.932, 1322.263 1045.932, 1326.250 1045.743 C 1330.237 1045.553, 1326.975 1045.397, 1319 1045.397 C 1311.025 1045.397, 1307.763 1045.553, 1311.750 1045.743 M 1440.750 1045.743 C 1444.737 1045.932, 1451.263 1045.932, 1455.250 1045.743 C 1459.237 1045.553, 1455.975 1045.397, 1448 1045.397 C 1440.025 1045.397, 1436.763 1045.553, 1440.750 1045.743 M 1931.296 1045.744 C 1935.583 1045.932, 1942.333 1045.931, 1946.296 1045.742 C 1950.258 1045.552, 1946.750 1045.399, 1938.500 1045.400 C 1930.250 1045.401, 1927.008 1045.556, 1931.296 1045.744 M 1986.750 1045.743 C 1990.737 1045.932, 1997.263 1045.932, 2001.250 1045.743 C 2005.237 1045.553, 2001.975 1045.397, 1994 1045.397 C 1986.025 1045.397, 1982.763 1045.553, 1986.750 1045.743 M 525.296 1109.744 C 529.583 1109.932, 536.333 1109.931, 540.296 1109.742 C 544.258 1109.552, 540.750 1109.399, 532.500 1109.400 C 524.250 1109.401, 521.008 1109.556, 525.296 1109.744" stroke="none" fill="#d15e6c" fill-rule="evenodd"/><path d="M 1003.799 31.534 C 1003.302 32.031, 997.622 32.774, 977.500 34.973 C 968.506 35.956, 964.104 36.671, 959 37.978 C 957.075 38.471, 953.250 39.401, 950.500 40.046 C 947.750 40.691, 941.675 42.329, 937 43.686 C 932.325 45.042, 926.025 46.868, 923 47.743 C 919.975 48.618, 915.700 50.118, 913.500 51.076 C 911.300 52.034, 905.675 54.257, 901 56.015 C 896.325 57.773, 892.275 59.502, 892 59.857 C 891.440 60.580, 889.772 61.404, 879 66.276 C 871.492 69.672, 852.823 80.093, 850 82.463 C 849.175 83.156, 846.475 84.899, 844 86.337 C 841.525 87.775, 838.062 90.312, 836.304 91.976 C 834.547 93.639, 832.723 95, 832.251 95 C 830.531 95, 822.533 101.204, 808.051 113.771 C 796.184 124.070, 769.365 151.964, 766.594 156.889 C 766.096 157.775, 764.161 160.300, 762.294 162.500 C 758.086 167.459, 758.696 166.618, 751.038 178 C 740.329 193.915, 739.502 195.227, 734.984 203.500 C 727.267 217.628, 725 222.326, 725 224.183 C 725 225.182, 724.550 226, 724 226 C 723.450 226, 723 226.441, 723 226.981 C 723 227.520, 721.200 231.750, 719 236.381 C 716.800 241.011, 714.986 245.857, 714.968 247.150 C 714.951 248.442, 714.287 250.358, 713.494 251.406 C 712.700 252.455, 711.347 255.830, 710.487 258.906 C 709.627 261.983, 708.434 265.477, 707.835 266.670 C 707.230 267.877, 707.039 270.395, 707.404 272.342 C 707.931 275.147, 707.674 276.115, 706.116 277.206 C 705.032 277.966, 703.881 280.322, 703.514 282.534 C 703.152 284.715, 702.486 287.400, 702.033 288.500 C 701.580 289.600, 700.679 293.200, 700.030 296.500 C 699.381 299.800, 698.472 304.075, 698.008 306 C 691.817 331.716, 691.296 393.685, 697.002 425.500 C 697.594 428.800, 698.332 433.300, 698.642 435.500 C 698.951 437.700, 699.609 439.928, 700.102 440.450 C 700.596 440.973, 701 442.666, 701 444.214 C 701 445.761, 701.411 447.809, 701.914 448.764 C 702.416 449.719, 703.340 453.048, 703.966 456.163 C 704.592 459.279, 705.748 462.073, 706.535 462.375 C 707.526 462.755, 707.786 463.818, 707.383 465.836 C 706.804 468.730, 710.358 480.485, 712.145 481.590 C 712.615 481.880, 713 483.216, 713 484.559 C 713 485.902, 713.450 487, 714 487 C 714.550 487, 715 488.260, 715 489.800 C 715 491.340, 715.358 493.027, 715.796 493.550 C 716.234 494.072, 717.190 496.300, 717.921 498.500 C 719.193 502.328, 727.902 520.244, 735.178 534 C 737.068 537.575, 740.502 543.255, 742.808 546.621 C 745.113 549.988, 747 553.066, 747 553.462 C 747 554.952, 752.553 561.958, 753.750 561.979 C 754.438 561.990, 755 562.760, 755 563.690 C 755 567.666, 783.725 601.804, 796.500 613.010 C 799.250 615.422, 804.200 619.974, 807.500 623.125 C 815.343 630.614, 840.003 648.965, 842.250 648.985 C 843.212 648.993, 844 649.675, 844 650.500 C 844 651.325, 844.361 652, 844.801 652 C 845.242 652, 848.352 653.787, 851.712 655.970 C 859.502 661.032, 870.946 667.392, 878 670.579 C 881.025 671.946, 886.200 674.372, 889.500 675.970 C 900.954 681.519, 906.984 684.047, 910.233 684.662 C 912.030 685.003, 913.950 685.609, 914.500 686.010 C 915.050 686.411, 917.300 687.307, 919.500 688 C 921.700 688.693, 924.041 689.689, 924.702 690.213 C 925.363 690.737, 926.826 690.873, 927.952 690.515 C 929.103 690.150, 930 690.312, 930 690.886 C 930 692.271, 937.885 694.587, 949.500 696.613 C 951.150 696.901, 953.400 697.509, 954.500 697.963 C 955.600 698.418, 959.200 699.319, 962.500 699.966 C 965.800 700.612, 970.127 701.559, 972.116 702.070 C 974.105 702.582, 978.016 703, 980.807 703 C 983.598 703, 986.122 703.389, 986.416 703.864 C 986.897 704.642, 1021.885 706.322, 1033 706.100 C 1047.647 705.809, 1076.313 703.990, 1081 703.055 C 1084.025 702.451, 1088.877 701.685, 1091.783 701.352 C 1095.784 700.894, 1097.333 700.232, 1098.168 698.623 C 1099.788 695.504, 1099.891 695.471, 1101.449 697.573 C 1102.664 699.211, 1103.185 699.313, 1104.926 698.250 C 1106.052 697.563, 1108.302 697, 1109.927 697 C 1111.552 697, 1113.160 696.550, 1113.500 696 C 1113.840 695.450, 1115.645 695, 1117.512 695 C 1119.379 695, 1121.940 694.597, 1123.203 694.104 C 1124.466 693.611, 1127.525 692.633, 1130 691.930 C 1132.475 691.227, 1134.928 690.280, 1135.450 689.826 C 1135.973 689.372, 1137.345 689, 1138.500 689 C 1139.655 689, 1141.027 688.621, 1141.550 688.157 C 1142.072 687.693, 1145.042 686.540, 1148.149 685.595 C 1152.071 684.403, 1153.957 683.272, 1154.316 681.899 C 1154.709 680.395, 1155.397 680.061, 1157.178 680.509 C 1158.468 680.832, 1161.318 680.354, 1163.512 679.445 C 1172.904 675.554, 1176.677 673.877, 1179.500 672.336 C 1181.150 671.435, 1183.737 670.058, 1185.250 669.276 C 1186.763 668.494, 1188 667.399, 1188 666.843 C 1188 666.288, 1188.563 666.033, 1189.250 666.276 C 1190.879 666.854, 1210.097 656.139, 1213 653.035 C 1213.275 652.741, 1215.246 651.610, 1217.380 650.523 C 1219.514 649.435, 1222.437 647.298, 1223.877 645.773 C 1225.316 644.248, 1226.817 643, 1227.211 643 C 1227.942 643, 1232.372 639.966, 1239.739 634.420 C 1253.599 623.987, 1286.176 591.912, 1291.716 583.244 C 1292.680 581.735, 1294.646 579.296, 1296.083 577.825 C 1298.475 575.376, 1305.152 566.122, 1314.715 552 C 1320.522 543.425, 1338.701 509.254, 1342.113 500.500 C 1342.542 499.400, 1344.267 494.978, 1345.946 490.674 C 1347.626 486.370, 1349 482.202, 1349 481.411 C 1349 480.620, 1349.520 478.966, 1350.156 477.736 C 1350.792 476.506, 1351.723 474.669, 1352.224 473.654 C 1354.085 469.890, 1356.325 457.308, 1356.187 451.400 C 1356.058 445.889, 1356.272 445.197, 1358.410 444.223 C 1360.106 443.450, 1360.931 442.063, 1361.325 439.322 C 1361.627 437.220, 1362.561 431.225, 1363.402 426 C 1364.242 420.775, 1364.945 414.227, 1364.965 411.450 C 1364.984 408.672, 1365.427 405.972, 1365.948 405.450 C 1366.764 404.633, 1367.957 382.983, 1367.957 369 C 1367.957 355.017, 1366.764 333.367, 1365.948 332.550 C 1365.427 332.028, 1364.984 329.103, 1364.965 326.050 C 1364.916 318.421, 1361.775 298.784, 1358.957 288.500 C 1358.354 286.300, 1357.607 283.375, 1357.296 282 C 1356.986 280.625, 1356.401 279.050, 1355.996 278.500 C 1355.592 277.950, 1354.953 275.700, 1354.576 273.500 C 1353.509 267.268, 1350.640 258, 1349.778 258 C 1349.350 258, 1349 257.095, 1349 255.989 C 1349 254.883, 1348.136 252.071, 1347.081 249.739 C 1346.025 247.408, 1344.859 244.375, 1344.490 243 C 1343.615 239.743, 1337.079 225.934, 1335.496 224 C 1334.821 223.175, 1333.955 221.150, 1333.572 219.500 C 1332.797 216.160, 1322.653 197.624, 1319.890 194.500 C 1318.917 193.400, 1318.178 192.275, 1318.247 192 C 1318.384 191.461, 1317.671 190.273, 1310.658 179.356 C 1308.134 175.426, 1305.278 171.421, 1304.313 170.456 C 1303.347 169.490, 1302.009 167.643, 1301.339 166.352 C 1299.010 161.864, 1280.429 140.475, 1269 129.127 C 1253.938 114.172, 1226.014 91, 1223.054 91 C 1222.566 91, 1222.017 90.622, 1221.833 90.161 C 1221.344 88.929, 1205.715 79.006, 1204.259 79.003 C 1203.576 79.001, 1201.100 77.537, 1198.757 75.750 C 1192.139 70.702, 1175.340 62.757, 1172.912 63.528 C 1171.382 64.014, 1170.726 63.669, 1170.335 62.172 C 1169.796 60.112, 1162.722 56.494, 1156.991 55.348 C 1155.323 55.015, 1153.716 54.350, 1153.420 53.871 C 1153.124 53.392, 1152.229 53, 1151.430 53 C 1150.632 53, 1148.071 52.153, 1145.739 51.118 C 1137.728 47.563, 1135.143 46.820, 1133.069 47.478 C 1131.657 47.926, 1130.797 47.635, 1130.388 46.569 C 1130.033 45.644, 1128.599 45, 1126.893 45 C 1125.302 45, 1124 44.550, 1124 44 C 1124 43.450, 1122.740 43, 1121.200 43 C 1119.660 43, 1117.952 42.552, 1117.404 42.004 C 1116.857 41.457, 1115.079 40.859, 1113.454 40.676 C 1111.829 40.492, 1109.825 40.077, 1109 39.752 C 1108.175 39.428, 1106.150 38.877, 1104.500 38.527 C 1102.850 38.178, 1099.475 37.466, 1097 36.945 C 1090.785 35.635, 1076.089 33.892, 1066.500 33.326 C 1062.100 33.067, 1058.072 32.437, 1057.550 31.927 C 1056.562 30.963, 1004.750 30.584, 1003.799 31.534 M 1008.825 54.410 C 1000.754 55.009, 993.816 55.837, 993.408 56.250 C 993 56.663, 990.968 57, 988.892 57 C 986.816 57, 984.840 57.450, 984.500 58 C 984.160 58.550, 982.671 59.007, 981.191 59.015 C 979.711 59.023, 976.487 59.730, 974.027 60.586 C 969.814 62.053, 964.360 63.408, 957.500 64.690 C 955.850 64.999, 954.045 65.611, 953.488 66.051 C 952.931 66.490, 949.855 67.831, 946.651 69.029 C 943.448 70.228, 939.628 71.834, 938.163 72.598 C 936.698 73.362, 935.145 73.990, 934.712 73.994 C 933.030 74.007, 910.139 85.850, 903.500 90.142 C 899.649 92.631, 895.942 94.854, 895.262 95.083 C 891.314 96.413, 861.115 121.977, 850.889 132.646 C 847.803 135.866, 841.507 143.225, 836.899 149 C 832.290 154.775, 828.178 159.650, 827.760 159.833 C 827.342 160.017, 827 160.638, 827 161.214 C 827 161.790, 825.508 164.340, 823.685 166.881 C 821.862 169.421, 818.626 174.650, 816.494 178.500 C 814.362 182.350, 812.366 185.725, 812.059 186 C 811.519 186.483, 808.926 191.803, 802.067 206.500 C 800.270 210.350, 797.944 215.300, 796.897 217.500 C 795.851 219.700, 794.996 222.209, 794.997 223.075 C 794.999 223.941, 793.832 227.991, 792.404 232.075 C 788.508 243.222, 786.360 251.312, 784.924 260.250 C 784.416 263.413, 783.523 268.813, 782.941 272.250 C 780.139 288.780, 778.205 323.023, 779.879 326.457 C 780.427 327.580, 781.114 332.325, 781.407 337 C 781.699 341.675, 782.426 348.200, 783.021 351.500 C 783.986 356.851, 784.498 360.064, 786.643 374.256 C 786.956 376.322, 787.614 378.261, 788.106 378.565 C 788.598 378.869, 789 379.998, 789 381.073 C 789 382.148, 789.440 383.809, 789.978 384.764 C 791.196 386.924, 795 398.892, 795 400.561 C 795 401.238, 797.250 406.611, 800 412.500 C 802.750 418.389, 805 423.593, 805 424.064 C 805 425.386, 818.170 448.744, 822.839 455.701 C 825.127 459.112, 827 462.337, 827 462.868 C 827 463.399, 827.404 463.983, 827.899 464.167 C 828.393 464.350, 832.090 468.775, 836.113 474 C 844.101 484.373, 868.370 509.052, 877.051 515.628 C 885.567 522.080, 899.116 531.299, 903.317 533.500 C 905.417 534.600, 907.986 536.288, 909.026 537.250 C 910.066 538.212, 911.396 539, 911.983 539 C 912.570 539, 913.481 540.135, 914.009 541.523 C 914.779 543.548, 915.442 543.927, 917.368 543.444 C 919.726 542.852, 926.721 545.677, 930 548.545 C 930.825 549.267, 931.950 549.947, 932.500 550.056 C 933.050 550.165, 933.950 550.388, 934.500 550.551 C 941.152 552.525, 944.121 553.545, 947.500 555.019 C 955.226 558.388, 967.403 562.036, 977.500 564.006 C 980.800 564.650, 984.281 565.587, 985.236 566.088 C 986.191 566.590, 988.914 567, 991.286 567 C 993.659 567, 996.028 567.415, 996.550 567.922 C 998.902 570.205, 1047.322 571.163, 1060.500 569.186 C 1064.350 568.609, 1069.975 567.850, 1073 567.499 C 1076.025 567.148, 1079.400 566.503, 1080.500 566.064 C 1083.961 564.685, 1091.909 563, 1094.955 563 C 1096.565 563, 1098.160 562.550, 1098.500 562 C 1098.840 561.450, 1100.431 561, 1102.035 561 C 1103.639 561, 1106.425 560.102, 1108.226 559.004 C 1110.027 557.906, 1112.145 557.006, 1112.934 557.004 C 1113.723 557.002, 1116.198 556.122, 1118.434 555.049 C 1120.670 553.975, 1124.750 552.520, 1127.500 551.815 C 1130.250 551.110, 1132.725 550.279, 1133 549.968 C 1133.275 549.657, 1136.530 547.850, 1140.232 545.952 C 1145.860 543.066, 1147.278 542.695, 1148.874 543.691 C 1151.024 545.032, 1152 544.484, 1152 541.938 C 1152 540.965, 1154.079 538.887, 1156.750 537.189 C 1163.577 532.848, 1172.215 527.982, 1174.250 527.328 C 1175.213 527.019, 1176 526.248, 1176 525.615 C 1176 524.982, 1177.089 523.797, 1178.419 522.982 C 1187.503 517.418, 1217.639 490.104, 1222.099 483.391 C 1222.870 482.231, 1225.300 479.247, 1227.500 476.759 C 1229.700 474.271, 1232.175 471.215, 1233 469.968 C 1233.825 468.721, 1235.864 465.856, 1237.532 463.600 C 1239.200 461.345, 1241.635 457.700, 1242.944 455.500 C 1244.253 453.300, 1246.110 450.600, 1247.070 449.500 C 1248.031 448.400, 1250.283 444.575, 1252.075 441 C 1253.867 437.425, 1255.610 434.275, 1255.948 434 C 1256.796 433.310, 1266 413.212, 1266 412.050 C 1266 411.533, 1267.575 407.655, 1269.500 403.431 C 1271.425 399.206, 1273.007 395.019, 1273.015 394.125 C 1273.023 393.231, 1273.757 390.475, 1274.647 388 C 1276.106 383.942, 1276.974 380.596, 1278.538 373 C 1279.045 370.536, 1280.415 366.412, 1282.025 362.500 C 1285.350 354.423, 1285.371 264.547, 1282.048 262 C 1281.689 261.725, 1280.601 258.350, 1279.631 254.500 C 1277.822 247.326, 1276.678 243.145, 1274.841 237 C 1274.266 235.075, 1273.569 231.813, 1273.293 229.750 C 1273.016 227.688, 1272.478 226, 1272.096 226 C 1271.714 226, 1270.832 224.312, 1270.135 222.250 C 1267.510 214.482, 1256.939 190.757, 1255.720 189.900 C 1254.969 189.372, 1253.103 185.039, 1251.347 179.750 C 1251.028 178.787, 1250.408 178, 1249.969 178 C 1249.262 178, 1243.155 169.087, 1242.090 166.500 C 1241.689 165.525, 1230.012 150.273, 1223 141.565 C 1216.441 133.420, 1186.341 105, 1184.272 105 C 1183.778 105, 1182.081 103.650, 1180.500 102 C 1178.919 100.350, 1177.105 99, 1176.468 99 C 1175.831 99, 1174.495 98.100, 1173.500 97 C 1172.505 95.900, 1171.197 94.999, 1170.595 94.998 C 1169.993 94.996, 1166.800 93.152, 1163.500 90.898 C 1156.590 86.180, 1136.566 75.924, 1128.200 72.819 C 1125.065 71.655, 1122.275 70.399, 1122 70.027 C 1121.725 69.656, 1119.362 68.764, 1116.750 68.046 C 1114.138 67.328, 1112 66.349, 1112 65.870 C 1112 65.392, 1111.213 64.998, 1110.250 64.996 C 1109.287 64.993, 1102.200 63.397, 1094.500 61.447 C 1081.956 58.272, 1076.318 57.077, 1066.500 55.512 C 1050.857 53.018, 1032.322 52.664, 1008.825 54.410 M 1014.500 64 C 1014.160 64.550, 1010.458 65, 1006.273 65 C 997.063 65, 978.297 67.762, 972.500 69.972 C 971.400 70.391, 968.700 71.194, 966.500 71.757 C 964.300 72.320, 961.150 73.269, 959.500 73.866 C 957.850 74.464, 953.394 75.891, 949.597 77.039 C 939.014 80.237, 915.739 91.281, 911.436 95.146 C 910.300 96.166, 908.882 97, 908.285 97 C 906.506 97, 888.106 109.779, 879.500 116.992 C 869.273 125.563, 854.825 140.039, 849.951 146.597 C 847.867 149.401, 845.542 152.326, 844.784 153.097 C 842.992 154.920, 837 163.678, 837 164.474 C 837 164.811, 835.924 166.247, 834.610 167.665 C 832.527 169.912, 825.548 182.498, 825.513 184.071 C 825.506 184.386, 824.792 185.351, 823.926 186.217 C 822.608 187.535, 817.811 197.814, 813.761 208 C 813.214 209.375, 812.369 211.281, 811.883 212.236 C 811.397 213.191, 811 214.789, 811 215.786 C 811 216.784, 810.581 218.027, 810.070 218.550 C 809.242 219.395, 808.421 222.362, 804.825 237.500 C 800.652 255.065, 799.664 264.638, 799.660 287.500 C 799.656 309.856, 800.575 323.619, 802.136 324.584 C 802.611 324.878, 803.005 326.554, 803.012 328.309 C 803.018 330.064, 803.720 333.975, 804.571 337 C 805.421 340.025, 806.760 345.425, 807.546 349 C 809.470 357.754, 814.752 371.114, 817.100 373.162 C 818.151 374.080, 818.745 375.500, 818.425 376.334 C 817.187 379.561, 837.439 414.191, 846.142 423.728 C 848.264 426.053, 850 428.311, 850 428.745 C 850 430.254, 871.645 451.819, 880.083 458.716 C 897.205 472.712, 915.592 484.134, 930.750 490.190 C 932.538 490.904, 934 491.828, 934 492.244 C 934 492.660, 934.580 493, 935.289 493 C 935.997 493, 938.342 493.900, 940.500 495 C 942.658 496.100, 945.179 497, 946.102 497 C 947.026 497, 949.743 497.890, 952.141 498.978 C 954.538 500.066, 957.648 500.966, 959.050 500.978 C 960.453 500.990, 962.028 501.427, 962.550 501.948 C 963.957 503.353, 974.841 505.998, 976.536 505.348 C 977.341 505.039, 978 505.332, 978 506 C 978 506.723, 978.675 506.955, 979.670 506.573 C 980.589 506.221, 981.657 506.445, 982.045 507.072 C 982.432 507.699, 986.743 508.668, 991.624 509.225 C 1004.001 510.637, 1057.990 511.314, 1060.500 510.088 C 1061.600 509.551, 1065.789 508.958, 1069.809 508.770 C 1074.113 508.569, 1077.426 507.929, 1077.867 507.215 C 1078.280 506.548, 1081.291 505.759, 1084.558 505.463 C 1089.993 504.970, 1094.165 503.992, 1099.500 501.961 C 1100.600 501.543, 1104.200 500.424, 1107.500 499.476 C 1114.641 497.423, 1117.213 496.382, 1134.002 488.750 C 1141.759 485.224, 1159.871 474.535, 1168.326 468.494 C 1187.032 455.128, 1209.083 432.526, 1223.856 411.574 C 1228.010 405.682, 1229.074 403.433, 1228.601 401.546 C 1228.110 399.588, 1228.515 398.859, 1230.680 397.807 C 1232.305 397.018, 1234.461 394.322, 1236.123 391 C 1244.471 374.324, 1245.165 372.577, 1244.591 369.707 C 1244.129 367.396, 1244.407 366.706, 1245.963 366.299 C 1247.059 366.013, 1248.327 364.411, 1248.855 362.645 C 1249.372 360.915, 1250.994 355.450, 1252.458 350.500 C 1253.923 345.550, 1255.544 340.118, 1256.061 338.429 C 1256.577 336.740, 1257 334.348, 1257 333.113 C 1257 331.879, 1257.399 330.111, 1257.887 329.184 C 1259.599 325.934, 1260.251 317.272, 1260.724 291.500 C 1261.187 266.326, 1260.532 255.760, 1257.872 245.500 C 1257.302 243.300, 1256.457 239.925, 1255.995 238 C 1255.534 236.075, 1254.402 232.025, 1253.481 229 C 1252.560 225.975, 1251.155 220.803, 1250.358 217.506 C 1249.561 214.209, 1248.030 210.021, 1246.955 208.198 C 1245.880 206.376, 1245 204.382, 1245 203.767 C 1245 202.080, 1235.089 181.928, 1232.874 179.113 C 1231.811 177.761, 1230.123 174.821, 1229.123 172.578 C 1228.122 170.335, 1225.769 166.475, 1223.892 164 C 1222.016 161.525, 1219.619 158.150, 1218.566 156.500 C 1210.448 143.782, 1184.692 118.315, 1169.500 107.983 C 1166.750 106.113, 1163.628 103.777, 1162.561 102.791 C 1161.495 101.806, 1160.239 101, 1159.769 101 C 1159.300 101, 1158.372 100.530, 1157.708 99.956 C 1155.439 97.995, 1138.311 88.234, 1135.903 87.529 C 1134.581 87.142, 1130.125 85.117, 1126 83.029 C 1121.875 80.942, 1115.125 78.228, 1111 76.999 C 1106.875 75.771, 1102.008 74.108, 1100.185 73.305 C 1098.362 72.502, 1093.412 71.176, 1089.185 70.358 C 1084.958 69.540, 1080.600 68.490, 1079.500 68.024 C 1076.541 66.771, 1061.480 64.997, 1053.809 64.999 C 1050.129 64.999, 1046.840 64.550, 1046.500 64 C 1046.131 63.403, 1039.676 63, 1030.500 63 C 1021.324 63, 1014.869 63.403, 1014.500 64 M 1010.656 85.677 C 1010.208 86.125, 1006.840 86.805, 1003.171 87.189 C 994.379 88.108, 988.113 89.360, 979 92.019 C 974.875 93.222, 970.375 94.426, 969 94.695 C 967.625 94.963, 965 95.855, 963.166 96.678 C 961.332 97.501, 954.940 100.353, 948.962 103.017 C 942.984 105.681, 933.566 110.817, 928.033 114.430 C 922.500 118.044, 917.529 121, 916.986 121 C 916.444 121, 916 121.675, 916 122.500 C 916 123.325, 915.597 124, 915.103 124 C 912.719 124, 888.680 148.190, 883 156.305 C 881.625 158.269, 879.481 160.140, 878.237 160.461 C 876.493 160.911, 876.099 161.557, 876.519 163.272 C 876.894 164.800, 875.914 167.229, 873.403 171 C 871.388 174.025, 868.493 179.404, 866.969 182.952 C 865.433 186.528, 863.383 189.690, 862.372 190.045 C 861.051 190.508, 860.523 191.762, 860.459 194.592 C 860.410 196.742, 859.638 200.525, 858.744 203 C 857.006 207.809, 854.456 218.028, 852.755 227 C 851.557 233.322, 851.307 268.809, 852.403 277 C 852.807 280.025, 853.524 283.400, 853.994 284.500 C 855.174 287.260, 856.100 291.632, 856.692 297.250 C 856.968 299.863, 857.509 302, 857.896 302 C 858.282 302, 859.167 303.688, 859.863 305.750 C 861.098 309.411, 862.593 312.730, 868.985 326 C 872.798 333.914, 879.020 343.747, 884.840 351.052 C 890.065 357.611, 905.005 374.208, 906.602 375.227 C 907.229 375.628, 910.558 378.103, 913.999 380.727 C 927.063 390.691, 932.536 394.001, 955 405.521 C 956.375 406.226, 959.525 407.321, 962 407.954 C 968.270 409.557, 977.364 413.175, 978.184 414.391 C 978.561 414.949, 981.036 415.476, 983.684 415.560 C 986.333 415.645, 993.225 416.440, 999 417.326 C 1004.894 418.230, 1015.860 418.951, 1024 418.970 C 1039.319 419.005, 1059.852 417.298, 1061.450 415.857 C 1061.972 415.386, 1064.072 415, 1066.117 415 C 1068.161 415, 1070.068 414.437, 1070.354 413.750 C 1070.724 412.862, 1071.324 413.058, 1072.427 414.427 C 1074.128 416.539, 1074.202 416.514, 1075.900 413.250 C 1076.621 411.865, 1077.995 411, 1079.476 411 C 1080.799 411, 1082.126 410.605, 1082.424 410.123 C 1082.722 409.641, 1085.111 408.715, 1087.733 408.065 C 1090.355 407.416, 1096.775 404.728, 1102 402.093 C 1107.225 399.457, 1112.063 397.495, 1112.750 397.733 C 1113.438 397.972, 1114 397.739, 1114 397.216 C 1114 395.963, 1121.539 391, 1123.443 391 C 1124.261 391, 1125.411 390.100, 1126 389 C 1126.589 387.900, 1127.529 387, 1128.089 387 C 1128.650 387, 1130.547 385.652, 1132.304 384.005 C 1134.062 382.357, 1135.848 381.007, 1136.273 381.005 C 1137.507 380.997, 1159.197 359.582, 1162.500 355.109 C 1164.150 352.875, 1166.063 351.037, 1166.750 351.024 C 1167.438 351.011, 1168 350.322, 1168 349.493 C 1168 348.664, 1170.370 344.501, 1173.267 340.243 C 1176.163 335.984, 1179.605 330.160, 1180.914 327.300 C 1182.538 323.754, 1183.963 322.005, 1185.397 321.800 C 1187.170 321.547, 1187.508 320.793, 1187.549 316.995 C 1187.575 314.518, 1188.306 311.143, 1189.173 309.495 C 1190.646 306.696, 1191.924 302.302, 1195.572 287.500 C 1196.385 284.200, 1197.489 280.118, 1198.025 278.429 C 1198.561 276.740, 1199 272.667, 1199 269.379 C 1199 266.091, 1199.482 262.918, 1200.072 262.328 C 1201.600 260.800, 1199.884 231.657, 1198.020 227.500 C 1197.527 226.400, 1196.903 223.925, 1196.633 222 C 1195.938 217.037, 1194.982 212.823, 1194.026 210.500 C 1193.573 209.400, 1192.192 205.132, 1190.957 201.015 C 1188.352 192.332, 1180.035 174.943, 1174.695 167.013 C 1172.663 163.996, 1171 160.781, 1171 159.870 C 1171 158.959, 1170.349 157.964, 1169.553 157.659 C 1168.757 157.353, 1165.326 153.593, 1161.928 149.302 C 1158.530 145.011, 1152.994 139.025, 1149.627 136 C 1146.260 132.975, 1141.479 128.502, 1139.002 126.059 C 1136.526 123.616, 1133.889 121.512, 1133.142 121.382 C 1132.395 121.252, 1130.820 120.287, 1129.642 119.239 C 1128.464 118.190, 1125.394 116.132, 1122.821 114.665 C 1120.247 113.199, 1117.533 111.436, 1116.790 110.749 C 1115.331 109.400, 1105.557 104.459, 1097.500 100.997 C 1094.750 99.815, 1090.575 97.982, 1088.223 96.924 C 1085.871 95.866, 1083.409 95, 1082.751 95 C 1081.433 95, 1068.667 91.279, 1065.500 89.972 C 1064.400 89.518, 1061.250 88.853, 1058.500 88.496 C 1055.750 88.138, 1050.575 87.399, 1047 86.853 C 1038.259 85.518, 1011.675 84.658, 1010.656 85.677 M 1025 95.972 C 1024.175 96.520, 1019.585 96.976, 1014.799 96.985 C 1010.014 96.993, 1003.714 97.477, 1000.799 98.060 C 994.227 99.376, 982.615 103.230, 982.167 104.246 C 981.983 104.661, 980.965 105, 979.903 105 C 978.841 105, 977.191 105.411, 976.236 105.913 C 975.281 106.415, 971.901 108.029, 968.724 109.499 C 965.548 110.969, 961.544 113.354, 959.827 114.799 C 958.110 116.244, 956.098 117.515, 955.356 117.624 C 951.969 118.121, 931 136.155, 931 138.570 C 931 139.357, 930.345 140, 929.545 140 C 928.745 140, 925.281 143.690, 921.847 148.200 C 917.292 154.185, 915.661 157.138, 915.813 159.129 C 915.973 161.226, 915.529 161.932, 913.899 162.179 C 910.574 162.682, 899 186.094, 899 192.317 C 899 193.242, 898.550 194, 898 194 C 897.450 194, 896.993 194.787, 896.985 195.750 C 896.977 196.713, 896.280 199.485, 895.435 201.910 C 892.261 211.025, 891.037 222.242, 891.058 242 C 891.073 255.286, 891.559 263.890, 892.583 269 C 893.410 273.125, 894.342 277.963, 894.653 279.750 C 894.964 281.538, 896.262 284.005, 897.538 285.233 C 899.232 286.863, 899.713 288.186, 899.322 290.140 C 898.641 293.544, 901.411 300.949, 908.183 313.830 C 919.793 335.914, 935.230 352.924, 956 366.518 C 968.567 374.743, 977.791 378.888, 979.160 376.924 C 979.816 375.982, 980.308 375.875, 980.612 376.608 C 982.287 380.644, 984.714 381.559, 1005.764 386.083 C 1011.401 387.295, 1044.803 387.263, 1050.236 386.041 C 1052.581 385.513, 1057.200 384.541, 1060.500 383.880 C 1063.800 383.219, 1066.928 382.300, 1067.450 381.839 C 1067.973 381.378, 1069.446 381, 1070.725 381 C 1072.280 381, 1073.362 380.178, 1073.993 378.519 C 1074.782 376.444, 1075.407 376.131, 1077.811 376.612 C 1084.326 377.915, 1105.841 364.095, 1121.573 348.500 C 1131.346 338.813, 1142 325.531, 1142 323.035 C 1142 322.558, 1142.394 322.017, 1142.875 321.833 C 1144.027 321.395, 1150 309.472, 1150 307.612 C 1150 306.817, 1150.455 306.015, 1151.012 305.829 C 1152.416 305.361, 1156.947 294.058, 1156.976 290.950 C 1156.989 289.547, 1157.358 287.972, 1157.796 287.450 C 1158.234 286.927, 1159.113 284.925, 1159.750 283 C 1160.923 279.453, 1161.300 277.860, 1163.295 268 C 1164.559 261.755, 1164.841 223.580, 1163.668 217.500 C 1162.545 211.679, 1160.584 204.293, 1155.835 188 C 1154.087 182.006, 1144.262 162.715, 1140.032 156.975 C 1137.813 153.964, 1135.211 150.389, 1134.249 149.032 C 1131.397 145.007, 1118.948 131.002, 1118.195 130.972 C 1117.813 130.956, 1115.475 129.119, 1113 126.889 C 1107.739 122.150, 1100.548 117, 1099.192 117 C 1098.671 117, 1097.664 116.300, 1096.954 115.444 C 1094.330 112.283, 1072.250 102.448, 1061 99.428 C 1057.425 98.469, 1049.100 97.367, 1042.500 96.980 C 1035.900 96.593, 1029.600 95.983, 1028.500 95.625 C 1027.400 95.267, 1025.825 95.423, 1025 95.972 M 1006.739 113.625 C 997.572 116.148, 987.711 120.371, 984.911 122.972 C 984.007 123.813, 980.507 126.681, 977.134 129.346 C 973.760 132.012, 970.987 134.487, 970.972 134.846 C 970.956 135.206, 969.213 137.444, 967.098 139.820 C 962.480 145.008, 957.258 155.464, 953.582 166.884 C 951.135 174.486, 950.927 176.306, 951.355 186.384 C 951.888 198.946, 952.838 206, 953.997 206 C 954.429 206, 955.064 207.120, 955.408 208.489 C 956.653 213.452, 962.141 223.649, 967.181 230.366 C 972.659 237.667, 980.196 244.242, 988.705 249.142 C 991.567 250.791, 994.185 253.008, 994.522 254.070 C 995.211 256.240, 996.627 256.618, 997.235 254.795 C 997.534 253.899, 998.782 254.027, 1002.102 255.295 C 1004.558 256.233, 1007.538 257, 1008.724 257 C 1009.911 257, 1011.160 257.450, 1011.500 258 C 1011.855 258.574, 1017.094 259, 1023.809 259 C 1033.260 259, 1036.962 258.549, 1043.133 256.645 C 1048.085 255.116, 1051.317 254.598, 1052.335 255.168 C 1053.440 255.786, 1054.190 255.521, 1054.867 254.273 C 1055.395 253.298, 1057.554 251.613, 1059.664 250.529 C 1072.286 244.042, 1084.766 231.073, 1091 217.963 C 1093.475 212.758, 1095.754 208.275, 1096.064 208 C 1097.079 207.100, 1099.013 191.660, 1099.007 184.508 C 1098.999 176.444, 1096.928 162, 1095.779 162 C 1095.351 162, 1095 161.545, 1095 160.989 C 1095 159.308, 1090.820 150.769, 1087.819 146.320 C 1086.269 144.021, 1085 141.887, 1085 141.578 C 1085 141.268, 1081.963 137.909, 1078.250 134.112 C 1067.724 123.346, 1057.742 117.581, 1042.696 113.578 C 1030.075 110.219, 1019.059 110.234, 1006.739 113.625 M 1373.750 857.163 C 1371.627 858.426, 1370 860.176, 1370 861.197 C 1370 862.188, 1369.314 863, 1368.475 863 C 1365.115 863, 1363.730 875.025, 1366.364 881.329 C 1368.063 885.394, 1373.737 890.315, 1375.810 889.519 C 1376.652 889.196, 1377.748 889.510, 1378.246 890.216 C 1378.964 891.234, 1379.258 891.241, 1379.659 890.250 C 1380.366 888.509, 1382 888.684, 1382 890.500 C 1382 892.698, 1383.680 892.331, 1384.290 890 C 1384.838 887.903, 1388.400 887.220, 1389.500 889 C 1390.490 890.602, 1391.743 890.184, 1394.738 887.250 C 1400.018 882.077, 1401 879.906, 1401 873.400 C 1401 869.149, 1400.536 866.860, 1399.500 866 C 1398.675 865.315, 1398 864.223, 1398 863.574 C 1398 862.924, 1396.415 860.856, 1394.477 858.978 C 1391.281 855.880, 1390.328 855.534, 1384.227 855.248 C 1378.693 854.989, 1376.835 855.329, 1373.750 857.163 M 39 959.023 L 39 1045.047 76.750 1044.718 C 116.928 1044.367, 126.091 1043.438, 133.807 1038.932 C 135.626 1037.869, 137.772 1037, 138.576 1037 C 139.379 1037, 142.391 1035.789, 145.268 1034.310 C 157.295 1028.125, 172.784 1013.286, 172.178 1008.528 C 171.931 1006.582, 172.304 1006, 173.798 1006 C 175.216 1006, 176.446 1004.368, 178.369 999.934 C 179.816 996.598, 181 993.223, 181 992.434 C 181 991.645, 181.348 991, 181.773 991 C 182.992 991, 185 980.994, 185 974.921 C 185 971.884, 185.486 968.914, 186.080 968.320 C 186.767 967.633, 186.965 964.377, 186.623 959.370 C 184.733 931.651, 181.165 920.378, 169.412 905 C 164.301 898.312, 160.214 894.440, 157.358 893.579 C 156.180 893.224, 155.006 892.130, 154.749 891.148 C 154.492 890.165, 152.756 888.593, 150.891 887.653 C 149.026 886.714, 146.825 885.524, 146 885.009 C 143.322 883.339, 132.976 879, 131.670 879 C 130.972 879, 129.973 878.632, 129.450 878.183 C 128.289 877.183, 120.723 875.381, 112 874.025 C 108.425 873.470, 90.537 873.012, 72.250 873.008 L 39 873 39 959.023 M 685 959 L 685 1045 728.500 1045 L 772 1045 772 1033.559 C 772 1023.131, 771.112 1018.968, 769.585 1022.244 C 769.118 1023.247, 768.882 1023.248, 768.417 1022.250 C 767.971 1021.296, 761.494 1021, 741.024 1021 C 717.499 1021, 714.140 1020.806, 713.607 1019.418 C 713.273 1018.548, 713 985.248, 713 945.418 L 713 873 699 873 L 685 873 685 959 M 1859.638 874.500 C 1859.955 875.325, 1859.722 876, 1859.120 876 C 1857.846 876, 1855.708 880.683, 1852.503 890.500 C 1849.774 898.855, 1845.208 911.707, 1843.975 914.500 C 1843.490 915.600, 1842.546 918.525, 1841.878 921 C 1841.209 923.475, 1840.289 925.928, 1839.831 926.450 C 1839.374 926.972, 1839 928.345, 1839 929.500 C 1839 930.655, 1838.611 932.028, 1838.137 932.550 C 1837.662 933.073, 1836.127 936.650, 1834.727 940.500 C 1833.326 944.350, 1830.718 951.456, 1828.931 956.291 C 1826.468 962.956, 1825.962 965.362, 1826.841 966.241 C 1828.573 967.973, 1828.259 968.951, 1825.653 969.942 C 1823.954 970.588, 1822.958 972.167, 1822.044 975.667 C 1821.349 978.325, 1819.930 982.408, 1818.890 984.739 C 1817.851 987.071, 1817 989.632, 1817 990.430 C 1817 991.229, 1816.638 992.106, 1816.195 992.379 C 1815.753 992.653, 1814.348 996.392, 1813.074 1000.688 C 1810.618 1008.970, 1810.097 1010.450, 1807.679 1016 C 1806.840 1017.925, 1805.832 1020.850, 1805.439 1022.500 C 1805.046 1024.150, 1804.382 1025.950, 1803.964 1026.500 C 1803.180 1027.531, 1800.433 1035.999, 1799.007 1041.776 L 1798.199 1045.051 1813.143 1044.776 L 1828.086 1044.500 1830.958 1036.500 C 1832.537 1032.100, 1834.794 1025.849, 1835.973 1022.609 C 1837.481 1018.464, 1837.803 1016.403, 1837.059 1015.659 C 1835.460 1014.060, 1835.743 1013.446, 1838.750 1011.985 C 1840.915 1010.933, 1848.845 1010.702, 1876 1010.901 C 1910.076 1011.149, 1910.521 1011.179, 1912.228 1013.326 C 1913.179 1014.522, 1914.242 1017.075, 1914.592 1019 C 1916.138 1027.518, 1919.651 1036.512, 1921.814 1037.487 C 1923.633 1038.309, 1923.899 1039.024, 1923.389 1041.737 L 1922.777 1045 1938.456 1045 L 1954.135 1045 1953.437 1042.750 C 1953.053 1041.513, 1951.957 1038.700, 1951 1036.500 C 1950.044 1034.300, 1948.680 1030.588, 1947.971 1028.250 C 1947.261 1025.912, 1946.404 1024, 1946.067 1024 C 1945.730 1024, 1944.856 1021.413, 1944.124 1018.250 C 1943.392 1015.087, 1942.509 1012.050, 1942.162 1011.500 C 1941.815 1010.950, 1940.384 1007.125, 1938.982 1003 C 1937.194 997.735, 1935.781 995.209, 1934.242 994.523 C 1932.386 993.697, 1932.138 992.990, 1932.627 989.929 C 1933.035 987.377, 1932.423 984.143, 1930.547 978.941 C 1929.084 974.887, 1927.523 971.104, 1927.078 970.535 C 1926.633 969.966, 1926.029 968.375, 1925.737 967 C 1925.445 965.625, 1922.866 957.975, 1920.005 950 C 1917.144 942.025, 1913.956 933.025, 1912.922 930 C 1911.887 926.975, 1910.581 923.719, 1910.020 922.764 C 1909.459 921.809, 1909 920.360, 1909 919.544 C 1909 918.728, 1908.100 916.458, 1907 914.500 C 1905.900 912.542, 1905 910.138, 1905 909.158 C 1905 908.179, 1904.007 906.311, 1902.793 905.008 C 1901.410 903.523, 1901.017 902.494, 1901.741 902.253 C 1902.851 901.883, 1898.427 887.470, 1895.677 882.500 C 1895.069 881.400, 1894.516 880.275, 1894.449 880 C 1894.382 879.725, 1894.029 878.712, 1893.664 877.750 C 1893.299 876.788, 1892.789 875.325, 1892.531 874.500 C 1892.140 873.246, 1889.354 873, 1875.563 873 C 1861.307 873, 1859.141 873.204, 1859.638 874.500 M 1979 958.973 L 1979 1045 1994.006 1045 L 2009.011 1045 2008.756 959.250 L 2008.500 873.500 1993.750 873.223 L 1979 872.947 1979 958.973 M 68 958.960 L 68 1021 88.018 1021 C 115.736 1021, 124.425 1018.588, 138.997 1006.846 C 142.304 1004.181, 145.690 1002, 146.521 1002 C 147.554 1002, 147.965 1001.128, 147.822 999.242 C 147.706 997.725, 148.776 994.238, 150.198 991.492 C 154.894 982.431, 157 972.909, 157 960.740 C 157 953.209, 155.346 939.470, 154.082 936.500 C 146.002 917.518, 135.580 905.966, 123 902.049 C 120.525 901.279, 117.600 900.168, 116.500 899.580 C 113.727 898.099, 111.283 897.909, 88.250 897.383 L 68 896.920 68 958.960 M 256 908 C 255.175 908.533, 253.481 908.976, 252.236 908.985 C 250.991 908.993, 249.191 909.423, 248.236 909.939 C 247.281 910.455, 243.125 912.456, 239 914.384 C 234.875 916.312, 229.063 920.040, 226.085 922.667 C 220.369 927.709, 211 941.002, 211 944.069 C 211 945.066, 210.612 946.122, 210.137 946.415 C 209.663 946.709, 208.747 948.873, 208.103 951.224 C 207.459 953.576, 206.622 956.625, 206.244 958 C 205.866 959.375, 205.575 967.700, 205.597 976.500 C 205.639 992.747, 206.949 1002.142, 209.584 1005.079 C 210.363 1005.947, 211 1007.696, 211 1008.966 C 211 1012.058, 218.817 1023.762, 224.748 1029.551 C 232.470 1037.086, 244.155 1043.368, 255.193 1045.916 C 262.101 1047.512, 285.402 1047.265, 292 1045.528 C 308.589 1041.158, 324.342 1028.569, 331.422 1014.022 C 333.390 1009.978, 335 1006.333, 335 1005.922 C 335 1005.510, 328.274 1005.121, 320.053 1005.056 L 305.105 1004.937 297.980 1012.384 C 291.014 1019.666, 290.685 1019.869, 283.203 1021.534 C 267.861 1024.947, 254.112 1021.235, 244.710 1011.142 C 242.075 1008.314, 239.263 1006, 238.460 1006 C 237.657 1006, 237 1005.550, 237 1005 C 237 1004.450, 237.505 1004, 238.122 1004 C 238.873 1004, 238.922 1003.585, 238.272 1002.750 C 236.873 1000.952, 234.641 989.390, 235.442 988.093 C 235.917 987.325, 251.411 987, 287.559 987 L 339 987 339 974.321 C 339 967.348, 338.566 960.260, 338.035 958.571 C 337.504 956.882, 336.828 954.294, 336.533 952.820 C 336.238 951.346, 335.294 949.437, 334.435 948.578 C 333.575 947.718, 333.153 946.562, 333.495 946.008 C 334.774 943.938, 327.361 932.359, 320 924.929 C 310.726 915.566, 301.171 910.457, 294.914 911.515 C 291.670 912.063, 290.889 911.862, 290.325 910.338 C 289.952 909.327, 289.163 908.169, 288.573 907.765 C 286.970 906.667, 257.736 906.878, 256 908 M 408 908 C 407.175 908.533, 405.396 908.976, 404.046 908.985 C 400.850 909.005, 383.068 917.658, 382.344 919.546 C 382.037 920.346, 381.197 921, 380.478 921 C 378.653 921, 371 929.902, 371 932.024 C 371 932.983, 370.117 933.998, 369.037 934.280 C 367.897 934.578, 366.166 936.828, 364.907 939.647 C 363.715 942.316, 362.348 945.281, 361.870 946.236 C 361.391 947.191, 361 948.852, 361 949.927 C 361 951.002, 360.550 952.160, 360 952.500 C 359.450 952.840, 359 954.640, 359 956.500 C 359 958.360, 358.550 960.160, 358 960.500 C 357.401 960.870, 357 967.491, 357 977 C 357 986.509, 357.401 993.130, 358 993.500 C 358.550 993.840, 359.002 995.554, 359.004 997.309 C 359.006 999.064, 359.906 1001.973, 361.004 1003.774 C 362.102 1005.575, 363 1007.730, 363 1008.564 C 363 1011.067, 367.015 1018.154, 371.675 1023.874 C 378.447 1032.187, 384.508 1036.630, 397.529 1042.823 C 404.037 1045.919, 411.252 1047.001, 425.299 1046.988 C 438.623 1046.976, 445.540 1045.824, 451.500 1042.623 C 453.150 1041.737, 455.084 1041.010, 455.798 1041.006 C 458.277 1040.994, 467.533 1034.270, 473.395 1028.222 C 480.140 1021.264, 484.958 1013.666, 484.983 1009.950 C 484.992 1008.548, 485.540 1006.860, 486.200 1006.200 C 487.133 1005.267, 484.824 1005, 475.807 1005 C 466.425 1005, 464.104 1005.286, 463.638 1006.500 C 462.978 1008.221, 457.931 1008.531, 456.349 1006.949 C 455.614 1006.214, 454.843 1006.589, 453.787 1008.199 C 450.898 1012.600, 445.473 1017.263, 441 1019.190 C 438.525 1020.257, 435.503 1021.618, 434.285 1022.215 C 432.892 1022.898, 428.701 1023.082, 422.991 1022.712 C 407.747 1021.725, 396.582 1014.779, 391.305 1003 C 389.949 999.975, 388.364 996.512, 387.781 995.305 C 386.585 992.830, 387.355 986.236, 389.031 984.586 C 389.828 983.802, 390.494 983.987, 391.428 985.250 C 392.628 986.875, 396.222 987, 441.913 987 L 491.105 987 490.682 973.250 C 490.220 958.259, 489.417 952.903, 487.458 951.752 C 486.759 951.341, 486.408 950.154, 486.680 949.115 C 486.952 948.076, 486.685 946.923, 486.087 946.554 C 485.489 946.184, 485 944.957, 485 943.827 C 485 940.513, 480.857 934, 478.748 934 C 477.383 934, 477.024 933.500, 477.442 932.182 C 477.855 930.883, 476.445 928.803, 472.495 924.885 C 465.374 917.821, 458.419 913.658, 447.571 909.968 C 439.445 907.204, 437.834 907.001, 424.172 907.015 C 416.102 907.024, 408.825 907.467, 408 908 M 576.571 909.040 C 574.411 910.118, 572 911, 571.214 911 C 567.872 911, 556.934 917.332, 552.163 922.029 L 547 927.111 547 918.055 L 547 909 533.860 909 C 522.519 909, 520.539 909.240, 519.392 910.750 C 518.309 912.177, 518.058 930.639, 518.032 1010.750 L 518 1109 532.500 1109 L 547 1109 547 1067.894 L 547 1026.788 549.901 1029.894 C 551.497 1031.602, 553.522 1033, 554.401 1033 C 555.281 1033, 556 1033.592, 556 1034.316 C 556 1036.011, 567.297 1042.727, 572.500 1044.126 C 574.700 1044.717, 577.534 1045.606, 578.797 1046.100 C 582.093 1047.391, 604.256 1047.211, 609.807 1045.848 C 612.388 1045.214, 615.625 1043.923, 617 1042.979 C 618.375 1042.035, 620.625 1040.930, 622 1040.524 C 629.114 1038.423, 646 1023.253, 646 1018.962 C 646 1018.001, 646.594 1016.986, 647.319 1016.708 C 648.986 1016.068, 655 1001.875, 655 998.582 C 655 997.227, 655.396 995.873, 655.879 995.574 C 658.829 993.751, 657.772 959.016, 654.538 951.500 C 653.828 949.850, 652.321 946.150, 651.190 943.277 C 646.652 931.753, 634.704 918.832, 624 913.872 C 609.741 907.265, 608.538 906.994, 593.601 907.040 C 582.645 907.073, 579.857 907.401, 576.571 909.040 M 835.500 908.224 C 833.850 908.780, 831.719 909.632, 830.764 910.118 C 829.809 910.603, 828.379 911, 827.587 911 C 826.795 911, 822.519 912.835, 818.085 915.077 C 809.885 919.225, 806 922.779, 806 926.135 C 806 927.161, 805.550 928, 805 928 C 804.450 928, 804 927.480, 804 926.845 C 804 925.385, 800.338 928.644, 798.715 931.547 C 798.047 932.743, 796.182 935.697, 794.572 938.111 C 790.189 944.681, 787.046 954.498, 787.021 961.691 C 787.009 965.096, 786.550 968.160, 786 968.500 C 784.760 969.267, 784.671 973, 785.893 973 C 787.614 973, 788.033 976.306, 786.524 977.973 C 784.638 980.058, 784.554 982, 786.350 982 C 787.401 982, 787.599 983.606, 787.244 989.250 C 786.697 997.955, 789.038 1005.999, 795.029 1016 C 799.559 1023.564, 808.093 1033, 810.402 1033 C 811.281 1033, 812 1033.628, 812 1034.395 C 812 1036.314, 829.445 1044.757, 835.962 1045.993 C 842.784 1047.287, 865.155 1047.253, 871 1045.940 C 879.812 1043.961, 892.942 1037.283, 894.122 1034.180 C 894.684 1032.701, 895.570 1032.005, 896.456 1032.345 C 898.537 1033.143, 909 1021.549, 909 1018.443 C 909 1017.091, 909.587 1016, 910.315 1016 C 912.118 1016, 915.207 1009.227, 914.467 1006.895 C 913.745 1004.620, 912.430 1004.437, 911.638 1006.500 C 911.232 1007.560, 909.578 1008, 906 1008 C 902.422 1008, 900.768 1007.560, 900.362 1006.500 C 899.621 1004.569, 888.469 1004.351, 887.583 1006.250 C 887.117 1007.250, 886.883 1007.250, 886.417 1006.250 C 885.445 1004.167, 884.395 1004.804, 881.468 1009.250 C 879.929 1011.587, 877.768 1014.175, 876.666 1015 C 872.564 1018.072, 866.886 1021, 865.032 1021 C 863.979 1021, 862.805 1021.507, 862.421 1022.127 C 861.948 1022.893, 858.582 1023.103, 851.908 1022.781 C 846.292 1022.511, 841.681 1022.719, 841.133 1023.267 C 839.933 1024.467, 838 1023.353, 838 1021.461 C 838 1020.680, 836.313 1019.142, 834.250 1018.043 C 824.419 1012.806, 816.916 1001.781, 815.847 991 L 815.500 987.500 867.190 987.241 L 918.880 986.982 919.580 982.318 C 920.435 976.613, 919.457 960.408, 917.913 954.693 C 916.408 949.123, 913.230 941.224, 912.002 940 C 911.726 939.725, 910.430 937.372, 909.122 934.771 C 906.876 930.304, 894.121 917.500, 891.917 917.500 C 891.372 917.500, 890.606 917.001, 890.214 916.392 C 888.936 914.408, 879.621 910.878, 877.241 911.476 C 875.705 911.861, 874.760 911.539, 874.360 910.495 C 873.998 909.553, 873.068 909.161, 872 909.500 C 870.939 909.837, 870.003 909.450, 869.650 908.530 C 869.156 907.242, 866.641 907.017, 853.781 907.106 C 845.377 907.165, 837.150 907.668, 835.500 908.224 M 984.571 909.040 C 982.411 910.118, 979.810 911, 978.793 911 C 971.923 911, 955 924.662, 947.779 936.038 C 941.708 945.604, 937 963.241, 937 976.424 C 937 981.773, 938.701 994.274, 939.935 998 C 940.391 999.375, 941.558 1003.007, 942.528 1006.071 C 943.927 1010.488, 944.915 1011.917, 947.299 1012.972 C 949.955 1014.148, 950.115 1014.443, 948.670 1015.499 C 947.197 1016.576, 947.356 1017.142, 950.267 1021.169 C 953.895 1026.190, 961.151 1033, 962.871 1033 C 963.492 1033, 964 1033.689, 964 1034.531 C 964 1035.374, 964.788 1036.365, 965.750 1036.734 C 966.712 1037.103, 969.300 1038.613, 971.500 1040.090 C 978.641 1044.882, 984.439 1046.321, 998.473 1046.784 C 1010.503 1047.181, 1020.463 1046.064, 1023.500 1043.977 C 1024.050 1043.599, 1025.942 1042.805, 1027.705 1042.213 C 1031.660 1040.883, 1041.640 1034.149, 1044.970 1030.563 C 1047.212 1028.148, 1047.505 1028.069, 1048.150 1029.701 C 1048.540 1030.691, 1048.891 1034.537, 1048.930 1038.250 L 1049 1045 1063 1045 L 1077 1045 1077 979 C 1077 901.538, 1078.321 909, 1064.607 909 C 1058.069 909, 1056.087 909.332, 1055.638 910.500 C 1055.302 911.377, 1053.803 912, 1052.031 912 C 1049.009 912, 1049 912.018, 1048.985 917.750 C 1048.965 925.142, 1048.012 926.786, 1045.426 923.890 C 1040.198 918.036, 1029.181 911.725, 1017.929 908.138 C 1015.965 907.512, 1008.540 907.018, 1001.429 907.040 C 990.644 907.073, 987.849 907.405, 984.571 909.040 M 1168.571 908.571 C 1167.707 909.436, 1167 910.508, 1167 910.955 C 1167 911.401, 1166.100 912.002, 1165 912.290 C 1163.900 912.577, 1163 912.405, 1163 911.906 C 1163 908.976, 1152.682 915.065, 1146.745 921.500 L 1143.054 925.500 1143.027 918.750 L 1143 912 1139.969 912 C 1138.197 912, 1136.698 911.377, 1136.362 910.500 C 1135.897 909.288, 1133.598 909, 1124.393 909 L 1113 909 1113 977 L 1113 1045 1127.979 1045 L 1142.957 1045 1143.290 1003.250 C 1143.481 979.271, 1144.058 959.797, 1144.646 957.500 C 1146.459 950.411, 1149.778 945.187, 1154 942.776 C 1156.408 941.401, 1157.988 939.759, 1157.992 938.628 C 1157.998 937.150, 1158.291 936.997, 1159.378 937.899 C 1160.358 938.712, 1161.535 938.747, 1163.443 938.021 C 1164.921 937.460, 1169.926 937, 1174.565 937 L 1183 937 1183 922 L 1183 907 1176.571 907 C 1172.061 907, 1169.674 907.469, 1168.571 908.571 M 1262.286 908.979 C 1261.186 910.264, 1260.356 910.576, 1259.919 909.869 C 1258.979 908.348, 1246.773 914.306, 1242.005 918.614 C 1238.293 921.968, 1238.229 921.985, 1237.633 919.759 C 1237.300 918.517, 1237.021 916.263, 1237.014 914.750 C 1237.003 912.657, 1236.515 912, 1234.969 912 C 1233.851 912, 1232.678 911.325, 1232.362 910.500 C 1231.897 909.288, 1229.598 909, 1220.393 909 L 1209 909 1209 977 L 1209 1045 1223 1045 L 1237 1045 1237 1005.539 C 1237 969.665, 1237.181 965.301, 1238.991 957.540 C 1241.312 947.586, 1242.162 945.921, 1247.395 941.094 C 1255.494 933.622, 1258.208 932.653, 1271 932.660 C 1281.713 932.666, 1282.824 932.854, 1287.231 935.408 C 1292.415 938.412, 1299.278 945.638, 1301.507 950.440 C 1304.326 956.510, 1304.985 966.974, 1304.992 1005.750 L 1305 1045 1319.044 1045 L 1333.088 1045 1332.782 995.750 C 1332.494 949.304, 1332.363 946.221, 1330.488 941.599 C 1329.395 938.903, 1327.700 936.485, 1326.722 936.225 C 1325.530 935.908, 1325.135 935.151, 1325.522 933.930 C 1326.280 931.542, 1321.829 924.856, 1317.140 921.340 C 1315.138 919.839, 1313.133 918.010, 1312.684 917.276 C 1311.821 915.864, 1302.396 911, 1300.524 911 C 1299.919 911, 1297.658 910.100, 1295.500 909 C 1292.138 907.286, 1289.603 907, 1277.779 907 C 1265.267 907, 1263.822 907.185, 1262.286 908.979 M 1486.882 909.118 C 1485.508 910.492, 1484.528 910.855, 1484.093 910.151 C 1483.642 909.420, 1482.363 909.709, 1480.187 911.033 C 1478.408 912.115, 1476.428 913, 1475.788 913 C 1475.148 913, 1472.009 915.055, 1468.812 917.566 L 1463 922.133 1463 916.740 L 1463 911.346 1460.012 911.785 C 1457.899 912.095, 1456.842 911.751, 1456.405 910.612 C 1455.886 909.260, 1453.949 909, 1444.393 909 L 1433 909 1433 977 L 1433 1045 1448 1045 L 1463 1045 1463 1001.777 L 1463 958.555 1466.250 950.281 C 1468.037 945.730, 1470.007 942.006, 1470.628 942.004 C 1471.248 942.002, 1472.325 941.313, 1473.022 940.473 C 1473.719 939.633, 1476.362 937.528, 1478.895 935.795 C 1483.436 932.687, 1483.668 932.643, 1495.500 932.659 C 1509.785 932.678, 1512.503 933.623, 1519.367 940.961 C 1529.518 951.814, 1530.270 956.077, 1530.698 1005.250 L 1531.045 1045 1545.022 1045 L 1559 1045 1559 1000.559 C 1559 972.010, 1558.642 955.897, 1558 955.500 C 1557.450 955.160, 1556.993 952.996, 1556.985 950.691 C 1556.957 942.563, 1550.795 929.627, 1543.227 921.805 C 1538.427 916.844, 1528.640 911, 1525.134 911 C 1523.987 911, 1521.575 910.102, 1519.774 909.004 C 1516.922 907.265, 1514.727 907.007, 1502.750 907.004 C 1490.075 907, 1488.834 907.166, 1486.882 909.118 M 1633.950 909.632 C 1633.012 912.099, 1632.657 912.225, 1628.313 911.629 C 1624.235 911.071, 1622.883 911.426, 1617.089 914.585 C 1610.525 918.162, 1602.923 924.541, 1603.301 926.155 C 1603.410 926.622, 1602.410 927.565, 1601.077 928.252 C 1598.420 929.620, 1596.697 932.200, 1591.897 942 C 1586.809 952.388, 1586.696 952.730, 1587.328 955.891 C 1587.911 958.807, 1586.972 963.142, 1584.766 967.718 C 1583.486 970.372, 1584.573 993.973, 1586.042 995.442 C 1586.569 995.969, 1587 997.359, 1587 998.530 C 1587 1004.566, 1598.634 1026, 1601.910 1026 C 1602.510 1026, 1603 1026.637, 1603 1027.415 C 1603 1031.231, 1622.001 1043.097, 1632.616 1045.909 C 1638.368 1047.434, 1659.439 1047.260, 1665.500 1045.639 C 1674.925 1043.117, 1686.276 1036.333, 1692.250 1029.652 L 1695 1026.576 1694.989 1041.038 C 1694.978 1055.520, 1694.230 1060.073, 1690.558 1068 C 1687.104 1075.456, 1685.266 1077.572, 1679.704 1080.500 C 1675.968 1082.467, 1674.005 1084.126, 1674.003 1085.317 C 1674.001 1086.679, 1673.499 1086.976, 1672 1086.500 C 1670.900 1086.151, 1670.001 1086.233, 1670.001 1086.683 C 1670.003 1087.675, 1647.912 1087.117, 1646.500 1086.089 C 1645.950 1085.688, 1643.475 1084.743, 1641 1083.988 C 1632.278 1081.330, 1621.846 1072.128, 1620.474 1065.883 L 1619.841 1063 1605.311 1063 L 1590.781 1063 1591.268 1066.250 C 1592.781 1076.360, 1598.024 1088.305, 1601.543 1089.655 C 1602.344 1089.962, 1603 1090.834, 1603 1091.592 C 1603 1093.498, 1613.088 1101.238, 1620.424 1104.960 C 1626.396 1107.990, 1630.571 1109.072, 1644.500 1111.194 C 1655.067 1112.804, 1672.267 1112.226, 1677.500 1110.085 C 1678.600 1109.635, 1681.692 1108.744, 1684.370 1108.105 C 1689.766 1106.818, 1696.072 1103.405, 1700.206 1099.534 C 1701.695 1098.140, 1703.304 1097, 1703.782 1097 C 1704.921 1097, 1709 1092.643, 1709 1091.426 C 1709 1090.906, 1709.913 1089.911, 1711.028 1089.214 C 1713.177 1087.872, 1721 1072.835, 1721 1070.046 C 1721 1069.141, 1721.406 1067.973, 1721.903 1067.450 C 1723.888 1065.361, 1724.269 1053.584, 1724.640 982.750 C 1724.968 919.877, 1724.818 909, 1723.620 909 C 1722.847 909, 1721.955 909.675, 1721.638 910.500 C 1721.257 911.493, 1719.689 912, 1717 912 C 1714.311 912, 1712.743 911.493, 1712.362 910.500 C 1711.913 909.332, 1709.931 909, 1703.393 909 L 1695 909 1695 917.563 L 1695 926.125 1688.250 920.397 C 1679.686 913.129, 1674.227 910.617, 1668.941 911.510 C 1665.363 912.115, 1664.930 911.945, 1664.033 909.587 L 1663.050 907 1649 907 L 1634.950 907 1633.950 909.632 M 1369 977 L 1369 1045 1383 1045 L 1397 1045 1397 979 C 1397 914.333, 1396.960 912.960, 1395 911 C 1393.222 909.222, 1391.667 909, 1381 909 L 1369 909 1369 977 M 1874.306 912.725 C 1873.649 914.251, 1871.689 919.890, 1869.951 925.256 C 1868.212 930.622, 1866.387 935.261, 1865.895 935.565 C 1865.403 935.869, 1865 937.141, 1865 938.392 C 1865 939.643, 1864.719 940.947, 1864.376 941.290 C 1864.033 941.634, 1862.690 945.196, 1861.391 949.207 C 1857.114 962.414, 1856.747 963.464, 1854.984 967.500 C 1853.282 971.396, 1849 984.834, 1849 986.278 C 1849 986.675, 1861.150 987, 1876 987 C 1890.850 987, 1902.998 986.888, 1902.997 986.750 C 1902.995 986.612, 1901.645 983.191, 1899.997 979.146 C 1898.348 975.102, 1897 971.029, 1897 970.096 C 1897 969.163, 1896.618 967.972, 1896.150 967.450 C 1895.683 966.927, 1894.298 963.125, 1893.073 959 C 1891.848 954.875, 1890.462 950.770, 1889.994 949.878 C 1889.488 948.914, 1889.566 947.834, 1890.185 947.215 C 1891.401 945.999, 1890.439 944, 1888.638 944 C 1887.321 944, 1883 931.874, 1883 928.179 C 1883 926.981, 1882.550 926, 1882 926 C 1881.450 926, 1881 925.127, 1881 924.059 C 1881 922.991, 1880.550 921.840, 1880 921.500 C 1879.450 921.160, 1878.967 920.121, 1878.926 919.191 C 1878.885 918.261, 1878.098 915.801, 1877.176 913.725 L 1875.500 909.949 1874.306 912.725 M 846 931.575 C 844.075 932.297, 841.661 932.913, 840.636 932.944 C 837.553 933.037, 830.743 937.245, 826.788 941.500 C 822.304 946.324, 817.416 955.165, 816.499 960.111 C 815.904 963.321, 816.089 963.792, 818.165 964.347 C 821.050 965.120, 886.284 965.212, 888.279 964.446 C 890.271 963.682, 888.812 956.151, 885.412 949.649 C 882.993 945.023, 877.095 938, 875.629 938 C 875.261 938, 873.282 936.956, 871.230 935.680 C 869.151 934.386, 864.181 932.804, 860 932.104 C 855.875 931.413, 851.825 930.717, 851 930.556 C 850.175 930.394, 847.925 930.853, 846 931.575 M 262 932.431 C 252.368 935.111, 243.737 941.806, 239.599 949.808 C 237.047 954.743, 234.816 962.078, 235.402 963.606 C 235.861 964.802, 241.643 964.984, 272.223 964.763 L 308.500 964.500 308.839 962.101 C 309.189 959.625, 308.686 958.235, 304.161 949.171 C 297.366 935.562, 278.157 927.935, 262 932.431 M 413.294 932.493 C 407.529 933.902, 399.604 939.231, 395.040 944.768 C 393.404 946.752, 390.851 951.706, 389.367 955.776 C 387.103 961.982, 386.896 963.322, 388.084 964.080 C 388.878 964.587, 405.099 964.877, 425 964.742 L 460.500 964.500 460.839 962.101 C 461.026 960.781, 460.735 958.756, 460.194 957.601 C 459.653 956.445, 458.053 953.012, 456.639 949.970 C 454.940 946.316, 452.276 942.921, 448.784 939.962 C 442.393 934.544, 440.235 933.496, 432.583 932.088 C 425.252 930.740, 420.021 930.850, 413.294 932.493 M 578.250 932.668 C 575.913 932.914, 574 933.539, 574 934.057 C 574 934.576, 573.175 935, 572.167 935 C 571.158 935, 569.993 935.337, 569.576 935.750 C 569.160 936.163, 567.856 936.500, 566.678 936.500 C 565.361 936.500, 564.393 937.241, 564.161 938.427 C 563.742 940.575, 560.178 943.915, 558.250 943.967 C 557.563 943.985, 557 944.620, 557 945.379 C 557 946.137, 555.438 949.351, 553.530 952.521 C 551.621 955.690, 549.371 960.652, 548.530 963.546 C 546.644 970.033, 546.564 983.798, 548.374 990.500 C 551.472 1001.976, 562.186 1014.996, 571.438 1018.529 C 573.984 1019.502, 576.028 1020.998, 576.316 1022.101 C 576.927 1024.436, 578.636 1024.468, 589.178 1022.344 C 595.216 1021.127, 597.498 1020.995, 597.781 1021.844 C 598.333 1023.498, 600 1023.274, 600 1021.547 C 600 1020.748, 601.961 1019.226, 604.358 1018.166 C 610.790 1015.321, 620.134 1006.453, 622.500 1000.949 C 623.600 998.391, 625.009 995.668, 625.631 994.898 C 627.330 992.799, 628.240 986.485, 628.210 977 C 628.174 965.462, 627.149 958.890, 625.013 956.500 C 624.030 955.400, 622.281 952.617, 621.126 950.316 C 619.390 946.855, 614.627 942.272, 606.500 936.242 C 602.686 933.412, 588.388 931.603, 578.250 932.668 M 999.500 932.626 C 994.703 933.353, 990.853 935.127, 985.500 939.078 C 977.021 945.336, 972.223 951.536, 970.082 959 C 969.372 961.475, 968.389 964.534, 967.896 965.797 C 966.746 968.746, 966.724 985.711, 967.869 986.419 C 968.346 986.714, 969.009 988.653, 969.341 990.728 C 970.979 1000.957, 980.235 1012.945, 990.122 1017.640 C 993.355 1019.175, 996 1020.983, 996 1021.657 C 996 1023.369, 997.758 1024.271, 999.250 1023.324 C 1000.841 1022.314, 1014 1022.248, 1014 1023.250 C 1014 1023.663, 1014.450 1024, 1015 1024 C 1015.550 1024, 1016 1023.325, 1016 1022.500 C 1016 1021.675, 1016.621 1021, 1017.380 1021 C 1018.138 1021, 1021.764 1019.488, 1025.437 1017.639 C 1030.213 1015.235, 1033.534 1012.602, 1037.102 1008.389 C 1043.690 1000.611, 1044.762 998.287, 1047.094 986.715 C 1048.947 977.523, 1048.973 976.463, 1047.521 969.215 C 1043.996 951.621, 1038.197 943.115, 1024.891 936.023 C 1020.286 933.568, 1017.781 932.956, 1010.891 932.603 C 1006.276 932.366, 1001.150 932.377, 999.500 932.626 M 1647.500 932.584 C 1638.451 934.761, 1635.818 935.915, 1630.708 939.939 C 1624.978 944.452, 1619.768 951.658, 1616.568 959.500 C 1615.670 961.700, 1614.229 964.033, 1613.367 964.683 C 1612.393 965.419, 1612.111 966.365, 1612.623 967.183 C 1613.076 967.908, 1613.307 971.284, 1613.135 974.686 C 1612.964 978.089, 1613.404 982.476, 1614.113 984.436 C 1615.115 987.208, 1615.135 988.265, 1614.201 989.199 C 1612.614 990.786, 1612.678 992, 1614.348 992 C 1615.089 992, 1617.346 995.340, 1619.364 999.422 C 1625.356 1011.545, 1633.784 1017.962, 1648.187 1021.368 C 1659.061 1023.939, 1662 1024.237, 1662 1022.772 C 1662 1022.032, 1665.102 1020.398, 1669.069 1019.047 C 1674.796 1017.097, 1677.122 1015.620, 1681.319 1011.266 C 1684.169 1008.310, 1687.341 1004.229, 1688.369 1002.196 C 1689.397 1000.163, 1690.782 997.825, 1691.448 997 C 1693.413 994.562, 1695 985.442, 1695 976.580 C 1695 963.470, 1690.617 952.517, 1681.671 943.273 C 1674.551 935.914, 1668.433 933.155, 1657.942 932.572 C 1653.299 932.314, 1648.600 932.319, 1647.500 932.584 M 1747.478 1015.127 C 1744.654 1017.730, 1743 1020.109, 1743 1021.568 C 1743 1022.841, 1742.550 1024.160, 1742 1024.500 C 1740.513 1025.419, 1740.790 1031.694, 1742.460 1034.923 C 1743.263 1036.475, 1744.897 1038.001, 1746.092 1038.314 C 1747.707 1038.736, 1748.124 1039.417, 1747.719 1040.965 C 1746.935 1043.963, 1753.249 1047.005, 1760.210 1046.984 C 1770.874 1046.950, 1777.874 1039.739, 1777.957 1028.700 C 1778.007 1021.950, 1776.485 1018.511, 1771.516 1014.148 C 1768.135 1011.179, 1767.476 1011, 1759.943 1011 C 1751.973 1011, 1751.945 1011.009, 1747.478 1015.127" stroke="none" fill="#fb4b63" fill-rule="evenodd"/></svg>