<svg xmlns="http://www.w3.org/2000/svg" width="228" height="301" viewBox="0 0 228 301" version="1.1"><path d="M 112.545 29.852 C 112.133 31.695, 110.882 34.118, 109.763 35.237 C 107.928 37.072, 107.889 37.358, 109.365 38.184 C 111.992 39.655, 111.287 41.596, 106.760 45.356 C 102.358 49.013, 102.335 48.855, 107.500 50.469 C 110.094 51.279, 109.150 52.749, 104.632 54.936 C 102.230 56.099, 99.460 57.939, 98.477 59.025 C 96.733 60.952, 96.767 61, 99.876 61 C 103.400 61, 104.966 63.218, 103.327 65.886 C 102.781 66.774, 100.152 68.625, 97.483 70 C 89.994 73.859, 90.299 75.415, 98.374 74.550 C 104.142 73.933, 105.088 74.066, 105.668 75.577 C 106.548 77.871, 102.500 81.274, 92.368 86.760 C 83.829 91.384, 76.516 97.407, 77.503 99.005 C 77.884 99.621, 78.770 99.662, 79.811 99.111 C 80.740 98.619, 83.850 98.219, 86.722 98.223 C 90.296 98.228, 93.106 97.545, 95.627 96.058 C 98.543 94.337, 99.483 94.157, 100.140 95.192 C 102.464 98.857, 98.312 105.188, 90.392 110.055 C 81.078 115.779, 79.150 117.755, 77.516 123.257 C 76.682 126.065, 76 129.485, 76 130.856 L 76 133.349 78.340 131.150 C 80.951 128.698, 85.933 127, 90.521 127 C 92.190 127, 94.576 126.285, 95.824 125.411 C 98.863 123.282, 101.357 124.271, 100.451 127.245 C 99.425 130.610, 97.017 132.954, 91.937 135.530 C 85.714 138.686, 84.200 140.582, 87.284 141.356 C 89.901 142.013, 96.606 140.446, 97.523 138.963 C 97.850 138.433, 98.991 138, 100.059 138 C 101.529 138, 102 138.696, 102 140.865 C 102 144.901, 99.261 147.924, 91.480 152.474 C 85.183 156.157, 79 161.285, 79 162.827 C 79 163.197, 82.634 163.441, 87.077 163.369 C 95.944 163.225, 96.874 163.832, 95.281 168.717 C 94.586 170.852, 92.535 172.431, 86.474 175.500 C 78.982 179.293, 74.451 183.784, 76.275 185.608 C 76.672 186.005, 79.585 185.535, 82.748 184.564 C 85.912 183.592, 89.850 182.731, 91.500 182.649 C 94.038 182.523, 94.547 182.903, 94.804 185.116 C 95.191 188.460, 90.458 192.647, 85.221 193.592 C 83.174 193.961, 80.694 194.680, 79.709 195.189 C 78.046 196.048, 78.102 196.333, 80.500 199.183 C 81.921 200.871, 82.919 202.758, 82.719 203.376 C 82.518 203.994, 79.837 206.176, 76.759 208.223 C 72.005 211.387, 70.851 212.783, 69.082 217.511 C 65.515 227.045, 66.564 229.235, 72.356 224.345 C 76.886 220.520, 84.912 217.021, 89.185 217.010 C 93.829 216.997, 97.469 215.624, 101.216 212.472 C 106.852 207.729, 107.002 208.141, 106.976 228.250 C 106.963 238.287, 106.545 248.254, 106.048 250.398 C 105.436 253.036, 103.391 256.109, 99.724 259.898 C 96.743 262.979, 93.263 267.075, 91.991 269 C 90.719 270.925, 88.541 273.738, 87.152 275.250 L 84.626 278 113.954 278 L 143.282 278 138.482 273.775 C 135.842 271.451, 131.793 268.352, 129.485 266.888 C 122.147 262.234, 121 258.363, 121 238.243 C 121 228.824, 121.415 220.861, 121.923 220.547 C 122.431 220.234, 124.366 220.873, 126.224 221.969 C 128.808 223.494, 131.151 223.916, 136.207 223.766 C 142.551 223.578, 143.145 223.774, 151.157 228.701 C 156.263 231.842, 159.868 233.478, 160.448 232.918 C 161.041 232.346, 160.545 229.366, 159.122 224.946 C 157.100 218.669, 156.303 217.496, 151.924 214.350 C 146.649 210.560, 145.770 208.017, 148.638 204.847 C 150.819 202.438, 149.176 200.443, 144.249 199.519 C 136.947 198.149, 131.175 193.312, 132.555 189.718 C 133.549 187.127, 135.785 186.944, 141.059 189.023 C 146.114 191.016, 152 191.661, 152 190.223 C 152 187.897, 147.952 184.419, 141.827 181.485 C 133.023 177.265, 132 176.375, 132 172.937 C 132 169.113, 133.504 168.465, 136.645 170.935 C 138.206 172.163, 140.746 173, 142.912 173 C 144.916 173, 147.622 173.747, 148.926 174.661 C 151.285 176.313, 151.294 176.306, 150.571 173.411 C 149.137 167.667, 145.951 164.148, 137.707 159.202 C 133.147 156.466, 128.491 152.804, 127.229 150.960 C 124.357 146.763, 125.565 145.163, 130.168 147.069 C 133.557 148.473, 144.998 149.038, 144.999 147.801 C 145.001 146.674, 138.806 142.323, 134.918 140.720 C 130.623 138.949, 126.798 134.405, 127.206 131.559 C 127.612 128.714, 131.672 128.980, 140.500 132.430 C 151.339 136.665, 151.003 136.635, 150.978 133.367 C 150.932 127.294, 147.531 122.327, 140.206 117.632 C 136.399 115.192, 131.859 111.688, 130.119 109.847 C 127.055 106.607, 125.193 102.473, 126.299 101.368 C 126.596 101.071, 129.912 101.522, 133.669 102.370 C 142.164 104.287, 150 105.027, 150 103.912 C 150 100.581, 137.105 90.469, 129.830 88.095 C 121.716 85.447, 122.592 81.511, 131.296 81.504 C 134.158 81.502, 136.683 81.050, 136.906 80.500 C 137.129 79.950, 134.429 77.921, 130.906 75.992 C 125.732 73.158, 124.439 71.956, 124.184 69.742 C 123.899 67.280, 124.180 67, 126.934 67 C 128.620 67, 130 66.583, 130 66.073 C 130 65.161, 127.014 62.596, 123.358 60.367 C 121.570 59.277, 121.583 59.144, 123.689 56.867 L 125.878 54.500 121.939 51.194 C 117.452 47.427, 117.028 45.590, 120.247 43.868 L 122.495 42.665 119.747 41.749 C 116.907 40.802, 115.993 37.741, 118.151 36.406 C 118.946 35.916, 118.713 35.264, 117.401 34.308 C 116.356 33.545, 115.004 31.477, 114.397 29.711 L 113.294 26.500 112.545 29.852" stroke="none" fill="#007662" fill-rule="evenodd"/><path d="M 39.205 24.774 L 18.910 44.500 18.955 97.510 L 19 150.520 37.260 168.760 L 55.520 187 63.153 187 C 69.015 187, 70.920 186.652, 71.362 185.500 C 71.843 184.246, 70.668 184, 64.208 184 L 56.479 184 38.740 166.240 L 21 148.480 20.959 96.990 L 20.918 45.500 40.709 26.282 L 60.500 7.063 113.842 7.032 L 167.185 7 187.092 26.163 L 207 45.327 207 74.163 L 207 103 180.500 103 C 157.611 103, 154 103.204, 154 104.500 C 154 105.798, 157.778 106, 182 106 L 210 106 210 75.124 L 210 44.248 189.616 24.624 L 169.233 5 114.366 5.024 L 59.500 5.047 39.205 24.774 M 44.220 29.793 L 25.940 47.500 25.970 96.989 L 26 146.478 42.239 162.739 L 58.477 179 67.239 179 C 72.057 179, 76 179.156, 76 179.346 C 76 179.537, 75.295 181.106, 74.433 182.834 C 73.571 184.561, 73.148 186.430, 73.492 186.987 C 74.464 188.560, 79.952 188.127, 86 186 C 92.673 183.653, 93 183.626, 93 185.427 C 93 187.652, 88.104 190.960, 83.791 191.649 C 81.641 191.993, 78.897 193.083, 77.691 194.072 C 75.802 195.622, 75.673 196.154, 76.758 197.935 L 78.017 200 52.008 200 L 26 200 26.033 223.250 L 26.066 246.500 44.576 264.250 L 63.086 282 113.922 282 L 164.757 282 183.344 264.250 L 201.930 246.500 201.965 198.989 L 202 151.477 185.739 135.239 L 169.478 119 158.111 119 C 147.228 119, 146.512 118.868, 141.320 115.897 C 135.541 112.591, 129 106.510, 129 104.444 C 129 103.447, 129.856 103.449, 133.250 104.451 C 135.588 105.142, 140.557 105.983, 144.294 106.320 C 152.104 107.025, 153.559 105.782, 150.718 100.832 L 149.093 98 175.547 98 L 202 98 202 72.724 L 202 47.448 183.579 29.724 L 165.159 12 113.829 12.043 L 62.500 12.086 44.220 29.793 M 48.811 31.620 C 39.840 40.211, 31.938 47.947, 31.250 48.811 C 30.290 50.018, 30 61.296, 30 97.429 L 30 144.476 44.737 159.238 L 59.475 174 72.277 174 C 83.008 174, 85.700 173.684, 88.911 172.045 C 91.019 170.970, 92.978 169.191, 93.266 168.091 C 93.712 166.384, 93.164 165.997, 89.528 165.452 C 87.185 165.101, 83.531 164.968, 81.409 165.157 C 78.411 165.423, 77.475 165.123, 77.213 163.809 C 76.600 160.735, 80.129 157.056, 88.601 151.939 C 96.704 147.045, 100 143.955, 100 141.254 C 100 140.297, 99.300 140.413, 97.346 141.693 C 94.322 143.674, 84.580 143.980, 82.751 142.151 C 81.206 140.606, 85.154 136.487, 91.063 133.479 C 95.503 131.218, 98.725 128.392, 97.854 127.521 C 97.617 127.284, 95.641 127.725, 93.462 128.501 C 91.283 129.277, 88.053 129.932, 86.285 129.956 C 84.199 129.985, 81.897 131.030, 79.732 132.931 C 75.014 137.073, 73.509 135.837, 74.368 128.525 C 75.439 119.413, 77.994 115.600, 86.796 109.982 C 93.775 105.527, 100.144 98.811, 98.731 97.398 C 98.424 97.091, 97.042 97.581, 95.660 98.487 C 94.203 99.442, 90.486 100.276, 86.823 100.472 C 83.345 100.657, 79.785 101.097, 78.910 101.450 C 78.005 101.815, 76.756 101.411, 76.009 100.511 C 74.928 99.208, 74.928 98.502, 76.011 96.479 C 77.471 93.752, 88.751 85.644, 96.563 81.707 C 99.347 80.304, 102.231 78.426, 102.972 77.534 C 104.197 76.057, 103.743 75.965, 97.909 76.505 C 86.818 77.533, 86.016 74.138, 96.018 68.500 C 102.358 64.927, 103.453 63, 99.142 63 C 97.479 63, 95.812 62.505, 95.438 61.900 C 94.463 60.322, 97.983 56.014, 102.017 53.851 C 103.915 52.833, 104.743 52, 103.857 52 C 102.970 52, 101.638 51.268, 100.896 50.374 C 99.716 48.953, 100.144 48.230, 104.295 44.624 C 108.834 40.683, 108.955 40.444, 107.022 39.242 C 104.264 37.525, 104.481 35.148, 107.500 34 C 108.875 33.477, 110.003 32.476, 110.006 31.775 C 110.009 31.074, 110.480 28.813, 111.053 26.750 C 112.489 21.577, 114.704 21.938, 116.124 27.577 C 116.973 30.950, 117.925 32.401, 119.743 33.092 C 122.121 33.996, 122.151 34.121, 120.574 36.528 C 118.993 38.940, 119.024 39.059, 121.469 39.988 C 124.498 41.140, 124.649 42.351, 122.083 44.917 C 120.195 46.805, 120.224 46.886, 124.083 50.457 C 128.403 54.454, 128.682 55.189, 126.546 56.962 C 125.316 57.983, 125.721 58.766, 129.186 62.063 C 132.626 65.334, 133.079 66.200, 132.018 67.479 C 131.323 68.315, 129.648 69, 128.294 69 C 124.413 69, 126.055 71.129, 132.509 74.467 C 139.384 78.023, 141.023 80.063, 138.981 82.522 C 137.933 83.786, 136.519 84.093, 133.383 83.740 C 126.896 83.008, 126.433 84.397, 132.346 86.848 C 135.293 88.069, 139.209 90.178, 141.047 91.534 L 144.389 94 170.694 94 L 197 94 196.899 71.250 L 196.798 48.500 179.770 32.250 L 162.742 16 113.932 16 L 65.121 16 48.811 31.620 M 112.545 29.852 C 112.133 31.695, 110.882 34.118, 109.763 35.237 C 107.928 37.072, 107.889 37.358, 109.365 38.184 C 111.992 39.655, 111.287 41.596, 106.760 45.356 C 102.358 49.013, 102.335 48.855, 107.500 50.469 C 110.094 51.279, 109.150 52.749, 104.632 54.936 C 102.230 56.099, 99.460 57.939, 98.477 59.025 C 96.733 60.952, 96.767 61, 99.876 61 C 103.400 61, 104.966 63.218, 103.327 65.886 C 102.781 66.774, 100.152 68.625, 97.483 70 C 89.994 73.859, 90.299 75.415, 98.374 74.550 C 104.142 73.933, 105.088 74.066, 105.668 75.577 C 106.548 77.871, 102.500 81.274, 92.368 86.760 C 83.829 91.384, 76.516 97.407, 77.503 99.005 C 77.884 99.621, 78.770 99.662, 79.811 99.111 C 80.740 98.619, 83.850 98.219, 86.722 98.223 C 90.296 98.228, 93.106 97.545, 95.627 96.058 C 98.543 94.337, 99.483 94.157, 100.140 95.192 C 102.464 98.857, 98.312 105.188, 90.392 110.055 C 81.078 115.779, 79.150 117.755, 77.516 123.257 C 76.682 126.065, 76 129.485, 76 130.856 L 76 133.349 78.340 131.150 C 80.951 128.698, 85.933 127, 90.521 127 C 92.190 127, 94.576 126.285, 95.824 125.411 C 98.863 123.282, 101.357 124.271, 100.451 127.245 C 99.425 130.610, 97.017 132.954, 91.937 135.530 C 85.714 138.686, 84.200 140.582, 87.284 141.356 C 89.901 142.013, 96.606 140.446, 97.523 138.963 C 97.850 138.433, 98.991 138, 100.059 138 C 101.529 138, 102 138.696, 102 140.865 C 102 144.901, 99.261 147.924, 91.480 152.474 C 85.183 156.157, 79 161.285, 79 162.827 C 79 163.197, 82.634 163.441, 87.077 163.369 C 95.944 163.225, 96.874 163.832, 95.281 168.717 C 94.586 170.852, 92.535 172.431, 86.474 175.500 C 78.982 179.293, 74.451 183.784, 76.275 185.608 C 76.672 186.005, 79.585 185.535, 82.748 184.564 C 85.912 183.592, 89.850 182.731, 91.500 182.649 C 94.038 182.523, 94.547 182.903, 94.804 185.116 C 95.191 188.460, 90.458 192.647, 85.221 193.592 C 83.174 193.961, 80.694 194.680, 79.709 195.189 C 78.046 196.048, 78.102 196.333, 80.500 199.183 C 81.921 200.871, 82.919 202.758, 82.719 203.376 C 82.518 203.994, 79.837 206.176, 76.759 208.223 C 72.005 211.387, 70.851 212.783, 69.082 217.511 C 65.515 227.045, 66.564 229.235, 72.356 224.345 C 76.886 220.520, 84.912 217.021, 89.185 217.010 C 93.829 216.997, 97.469 215.624, 101.216 212.472 C 106.852 207.729, 107.002 208.141, 106.976 228.250 C 106.963 238.287, 106.545 248.254, 106.048 250.398 C 105.436 253.036, 103.391 256.109, 99.724 259.898 C 96.743 262.979, 93.263 267.075, 91.991 269 C 90.719 270.925, 88.541 273.738, 87.152 275.250 L 84.626 278 113.954 278 L 143.282 278 138.482 273.775 C 135.842 271.451, 131.793 268.352, 129.485 266.888 C 122.147 262.234, 121 258.363, 121 238.243 C 121 228.824, 121.415 220.861, 121.923 220.547 C 122.431 220.234, 124.366 220.873, 126.224 221.969 C 128.808 223.494, 131.151 223.916, 136.207 223.766 C 142.551 223.578, 143.145 223.774, 151.157 228.701 C 156.263 231.842, 159.868 233.478, 160.448 232.918 C 161.041 232.346, 160.545 229.366, 159.122 224.946 C 157.100 218.669, 156.303 217.496, 151.924 214.350 C 146.649 210.560, 145.770 208.017, 148.638 204.847 C 150.819 202.438, 149.176 200.443, 144.249 199.519 C 136.947 198.149, 131.175 193.312, 132.555 189.718 C 133.549 187.127, 135.785 186.944, 141.059 189.023 C 146.114 191.016, 152 191.661, 152 190.223 C 152 187.897, 147.952 184.419, 141.827 181.485 C 133.023 177.265, 132 176.375, 132 172.937 C 132 169.113, 133.504 168.465, 136.645 170.935 C 138.206 172.163, 140.746 173, 142.912 173 C 144.916 173, 147.622 173.747, 148.926 174.661 C 151.285 176.313, 151.294 176.306, 150.571 173.411 C 149.137 167.667, 145.951 164.148, 137.707 159.202 C 133.147 156.466, 128.491 152.804, 127.229 150.960 C 124.357 146.763, 125.565 145.163, 130.168 147.069 C 133.557 148.473, 144.998 149.038, 144.999 147.801 C 145.001 146.674, 138.806 142.323, 134.918 140.720 C 130.623 138.949, 126.798 134.405, 127.206 131.559 C 127.612 128.714, 131.672 128.980, 140.500 132.430 C 151.339 136.665, 151.003 136.635, 150.978 133.367 C 150.932 127.294, 147.531 122.327, 140.206 117.632 C 136.399 115.192, 131.859 111.688, 130.119 109.847 C 127.055 106.607, 125.193 102.473, 126.299 101.368 C 126.596 101.071, 129.912 101.522, 133.669 102.370 C 142.164 104.287, 150 105.027, 150 103.912 C 150 100.581, 137.105 90.469, 129.830 88.095 C 121.716 85.447, 122.592 81.511, 131.296 81.504 C 134.158 81.502, 136.683 81.050, 136.906 80.500 C 137.129 79.950, 134.429 77.921, 130.906 75.992 C 125.732 73.158, 124.439 71.956, 124.184 69.742 C 123.899 67.280, 124.180 67, 126.934 67 C 128.620 67, 130 66.583, 130 66.073 C 130 65.161, 127.014 62.596, 123.358 60.367 C 121.570 59.277, 121.583 59.144, 123.689 56.867 L 125.878 54.500 121.939 51.194 C 117.452 47.427, 117.028 45.590, 120.247 43.868 L 122.495 42.665 119.747 41.749 C 116.907 40.802, 115.993 37.741, 118.151 36.406 C 118.946 35.916, 118.713 35.264, 117.401 34.308 C 116.356 33.545, 115.004 31.477, 114.397 29.711 L 113.294 26.500 112.545 29.852 M 140.500 113 C 140.868 113.596, 147.264 114, 156.319 114 L 171.521 114 189.260 131.760 L 207 149.520 206.988 199.010 L 206.976 248.500 186.898 267.750 L 166.820 287 113.880 287 L 60.940 287 40.970 267.773 L 21 248.545 21 221.773 L 21 195 47.441 195 C 63.990 195, 74.113 194.626, 74.500 194 C 74.906 193.342, 65.510 193, 47.059 193 L 19 193 18.955 221.250 L 18.910 249.500 39.205 269.226 L 59.500 288.953 114.379 288.976 L 169.258 289 189.629 269.388 L 210 249.776 210 199.081 L 210 148.387 191.750 130.201 L 173.500 112.015 156.691 112.007 C 145.738 112.003, 140.097 112.348, 140.500 113 M 151.514 125.750 C 151.915 126.713, 152.469 129.630, 152.747 132.233 C 153.141 135.928, 152.908 137.098, 151.685 137.567 C 150.824 137.898, 145.574 136.499, 140.019 134.458 C 134.464 132.418, 129.651 131.016, 129.324 131.343 C 127.975 132.691, 132.412 137.179, 137.770 139.887 C 144.384 143.228, 147.323 146.082, 146.824 148.676 C 146.523 150.238, 145.470 150.495, 139.486 150.463 C 135.644 150.442, 131.375 150.080, 130 149.657 L 127.500 148.887 130.264 151.408 C 131.784 152.794, 136.183 155.771, 140.038 158.022 C 147.641 162.463, 151.696 167.353, 152.650 173.233 C 153.357 177.589, 152.002 178.570, 148.079 176.541 C 146.440 175.693, 143.602 175, 141.772 175 C 139.942 175, 137.401 174.269, 136.125 173.375 C 133.940 171.845, 133.825 171.859, 134.153 173.625 C 134.377 174.832, 137.260 176.824, 142.244 179.214 C 147.764 181.863, 150.561 183.872, 151.989 186.214 C 154.312 190.024, 154.558 192.572, 152.671 193.296 C 151.029 193.926, 142.655 192.421, 140.051 191.028 C 138.995 190.462, 137.186 190, 136.031 190 C 134.243 190, 134.089 190.297, 134.994 191.990 C 136.292 194.415, 140.330 196.596, 145.219 197.513 C 147.227 197.890, 149.675 199.088, 150.659 200.176 C 152.360 202.055, 152.363 202.302, 150.724 205.158 C 149.776 206.810, 149 208.554, 149 209.033 C 149 209.512, 150.959 211.252, 153.354 212.900 C 157.906 216.032, 161.138 221.796, 162.527 229.261 C 163.173 232.734, 162.009 236, 160.125 236 C 159.779 236, 155.672 233.750, 151 231 C 142.970 226.274, 142.117 226, 135.443 226 C 130.783 226, 127.722 225.501, 126.441 224.532 C 125.374 223.724, 124.162 223.049, 123.750 223.032 C 123.338 223.014, 123 230.058, 123 238.684 C 123 257.523, 124.118 260.942, 131.912 265.943 C 134.551 267.637, 137.563 269.981, 138.605 271.153 C 142.025 274.997, 147.899 276.956, 156 276.955 L 163.500 276.954 180.294 260.727 L 197.088 244.500 197.044 198.487 L 197 152.474 182.737 138.237 L 168.475 124 159.631 124 C 151.596 124, 150.853 124.160, 151.514 125.750 M 30.667 205.667 C 30.300 206.033, 30 214.769, 30 225.079 L 30 243.825 47.250 260.396 L 64.500 276.968 72.500 276.980 C 82.114 276.995, 85.263 275.441, 90.039 268.326 C 91.821 265.671, 95.499 261.203, 98.212 258.395 C 101.448 255.046, 103.456 251.950, 104.049 249.395 C 105.050 245.078, 105.355 213, 104.394 213 C 104.061 213, 102.484 214.098, 100.890 215.439 C 99.122 216.927, 96.139 218.112, 93.245 218.477 C 83.820 219.665, 80.329 221.201, 70.250 228.594 C 68.357 229.982, 67.744 230.032, 66.393 228.911 C 62.724 225.866, 67.535 211.747, 73.660 207.585 L 77.464 205 54.399 205 C 41.713 205, 31.033 205.300, 30.667 205.667" stroke="none" fill="#e9e4e4" fill-rule="evenodd"/><path d="M 40.709 26.282 L 20.918 45.500 20.959 96.990 L 21 148.480 38.740 166.240 L 56.479 184 64.101 184 C 71.518 184, 71.711 184.062, 71.282 186.303 C 70.949 188.045, 71.480 188.898, 73.458 189.799 C 75.680 190.811, 75.913 191.294, 75.002 192.996 C 73.970 194.924, 72.925 195, 47.465 195 L 21 195 21 221.773 L 21 248.545 40.970 267.773 L 60.940 287 113.880 287 L 166.820 287 186.898 267.750 L 206.976 248.500 206.988 198.990 L 207 149.479 189.240 131.740 L 171.480 114 156.490 113.958 L 141.500 113.917 137.840 110.680 L 134.180 107.444 139.840 108.146 C 142.953 108.533, 146.740 109.161, 148.256 109.542 C 151.627 110.390, 154 108.669, 154 105.378 L 154 103 180.500 103 L 207 103 207 74.163 L 207 45.327 187.092 26.163 L 167.185 7 113.842 7.032 L 60.500 7.063 40.709 26.282 M 44.220 29.793 L 25.940 47.500 25.970 96.989 L 26 146.478 42.239 162.739 L 58.477 179 67.239 179 C 72.057 179, 76 179.156, 76 179.346 C 76 179.537, 75.295 181.106, 74.433 182.834 C 73.571 184.561, 73.148 186.430, 73.492 186.987 C 74.464 188.560, 79.952 188.127, 86 186 C 92.673 183.653, 93 183.626, 93 185.427 C 93 187.652, 88.104 190.960, 83.791 191.649 C 81.641 191.993, 78.897 193.083, 77.691 194.072 C 75.802 195.622, 75.673 196.154, 76.758 197.935 L 78.017 200 52.008 200 L 26 200 26.033 223.250 L 26.066 246.500 44.576 264.250 L 63.086 282 113.922 282 L 164.757 282 183.344 264.250 L 201.930 246.500 201.965 198.989 L 202 151.477 185.739 135.239 L 169.478 119 158.111 119 C 147.228 119, 146.512 118.868, 141.320 115.897 C 135.541 112.591, 129 106.510, 129 104.444 C 129 103.447, 129.856 103.449, 133.250 104.451 C 135.588 105.142, 140.557 105.983, 144.294 106.320 C 152.104 107.025, 153.559 105.782, 150.718 100.832 L 149.093 98 175.547 98 L 202 98 202 72.724 L 202 47.448 183.579 29.724 L 165.159 12 113.829 12.043 L 62.500 12.086 44.220 29.793 M 48.811 31.620 C 39.840 40.211, 31.938 47.947, 31.250 48.811 C 30.290 50.018, 30 61.296, 30 97.429 L 30 144.476 44.737 159.238 L 59.475 174 72.277 174 C 83.008 174, 85.700 173.684, 88.911 172.045 C 91.019 170.970, 92.978 169.191, 93.266 168.091 C 93.712 166.384, 93.164 165.997, 89.528 165.452 C 87.185 165.101, 83.531 164.968, 81.409 165.157 C 78.411 165.423, 77.475 165.123, 77.213 163.809 C 76.600 160.735, 80.129 157.056, 88.601 151.939 C 96.704 147.045, 100 143.955, 100 141.254 C 100 140.297, 99.300 140.413, 97.346 141.693 C 94.322 143.674, 84.580 143.980, 82.751 142.151 C 81.206 140.606, 85.154 136.487, 91.063 133.479 C 95.503 131.218, 98.725 128.392, 97.854 127.521 C 97.617 127.284, 95.641 127.725, 93.462 128.501 C 91.283 129.277, 88.053 129.932, 86.285 129.956 C 84.199 129.985, 81.897 131.030, 79.732 132.931 C 75.014 137.073, 73.509 135.837, 74.368 128.525 C 75.439 119.413, 77.994 115.600, 86.796 109.982 C 93.775 105.527, 100.144 98.811, 98.731 97.398 C 98.424 97.091, 97.042 97.581, 95.660 98.487 C 94.203 99.442, 90.486 100.276, 86.823 100.472 C 83.345 100.657, 79.785 101.097, 78.910 101.450 C 78.005 101.815, 76.756 101.411, 76.009 100.511 C 74.928 99.208, 74.928 98.502, 76.011 96.479 C 77.471 93.752, 88.751 85.644, 96.563 81.707 C 99.347 80.304, 102.231 78.426, 102.972 77.534 C 104.197 76.057, 103.743 75.965, 97.909 76.505 C 86.818 77.533, 86.016 74.138, 96.018 68.500 C 102.358 64.927, 103.453 63, 99.142 63 C 97.479 63, 95.812 62.505, 95.438 61.900 C 94.463 60.322, 97.983 56.014, 102.017 53.851 C 103.915 52.833, 104.743 52, 103.857 52 C 102.970 52, 101.638 51.268, 100.896 50.374 C 99.716 48.953, 100.144 48.230, 104.295 44.624 C 108.834 40.683, 108.955 40.444, 107.022 39.242 C 104.264 37.525, 104.481 35.148, 107.500 34 C 108.875 33.477, 110.003 32.476, 110.006 31.775 C 110.009 31.074, 110.480 28.813, 111.053 26.750 C 112.489 21.577, 114.704 21.938, 116.124 27.577 C 116.973 30.950, 117.925 32.401, 119.743 33.092 C 122.121 33.996, 122.151 34.121, 120.574 36.528 C 118.993 38.940, 119.024 39.059, 121.469 39.988 C 124.498 41.140, 124.649 42.351, 122.083 44.917 C 120.195 46.805, 120.224 46.886, 124.083 50.457 C 128.403 54.454, 128.682 55.189, 126.546 56.962 C 125.316 57.983, 125.721 58.766, 129.186 62.063 C 132.626 65.334, 133.079 66.200, 132.018 67.479 C 131.323 68.315, 129.648 69, 128.294 69 C 124.413 69, 126.055 71.129, 132.509 74.467 C 139.384 78.023, 141.023 80.063, 138.981 82.522 C 137.933 83.786, 136.519 84.093, 133.383 83.740 C 126.896 83.008, 126.433 84.397, 132.346 86.848 C 135.293 88.069, 139.209 90.178, 141.047 91.534 L 144.389 94 170.694 94 L 197 94 196.899 71.250 L 196.798 48.500 179.770 32.250 L 162.742 16 113.932 16 L 65.121 16 48.811 31.620 M 151.514 125.750 C 151.915 126.713, 152.469 129.630, 152.747 132.233 C 153.141 135.928, 152.908 137.098, 151.685 137.567 C 150.824 137.898, 145.574 136.499, 140.019 134.458 C 134.464 132.418, 129.651 131.016, 129.324 131.343 C 127.975 132.691, 132.412 137.179, 137.770 139.887 C 144.384 143.228, 147.323 146.082, 146.824 148.676 C 146.523 150.238, 145.470 150.495, 139.486 150.463 C 135.644 150.442, 131.375 150.080, 130 149.657 L 127.500 148.887 130.264 151.408 C 131.784 152.794, 136.183 155.771, 140.038 158.022 C 147.641 162.463, 151.696 167.353, 152.650 173.233 C 153.357 177.589, 152.002 178.570, 148.079 176.541 C 146.440 175.693, 143.602 175, 141.772 175 C 139.942 175, 137.401 174.269, 136.125 173.375 C 133.940 171.845, 133.825 171.859, 134.153 173.625 C 134.377 174.832, 137.260 176.824, 142.244 179.214 C 147.764 181.863, 150.561 183.872, 151.989 186.214 C 154.312 190.024, 154.558 192.572, 152.671 193.296 C 151.029 193.926, 142.655 192.421, 140.051 191.028 C 138.995 190.462, 137.186 190, 136.031 190 C 134.243 190, 134.089 190.297, 134.994 191.990 C 136.292 194.415, 140.330 196.596, 145.219 197.513 C 147.227 197.890, 149.675 199.088, 150.659 200.176 C 152.360 202.055, 152.363 202.302, 150.724 205.158 C 149.776 206.810, 149 208.554, 149 209.033 C 149 209.512, 150.959 211.252, 153.354 212.900 C 157.906 216.032, 161.138 221.796, 162.527 229.261 C 163.173 232.734, 162.009 236, 160.125 236 C 159.779 236, 155.672 233.750, 151 231 C 142.970 226.274, 142.117 226, 135.443 226 C 130.783 226, 127.722 225.501, 126.441 224.532 C 125.374 223.724, 124.162 223.049, 123.750 223.032 C 123.338 223.014, 123 230.058, 123 238.684 C 123 257.523, 124.118 260.942, 131.912 265.943 C 134.551 267.637, 137.563 269.981, 138.605 271.153 C 142.025 274.997, 147.899 276.956, 156 276.955 L 163.500 276.954 180.294 260.727 L 197.088 244.500 197.044 198.487 L 197 152.474 182.737 138.237 L 168.475 124 159.631 124 C 151.596 124, 150.853 124.160, 151.514 125.750 M 30.667 205.667 C 30.300 206.033, 30 214.769, 30 225.079 L 30 243.825 47.250 260.396 L 64.500 276.968 72.500 276.980 C 82.114 276.995, 85.263 275.441, 90.039 268.326 C 91.821 265.671, 95.499 261.203, 98.212 258.395 C 101.448 255.046, 103.456 251.950, 104.049 249.395 C 105.050 245.078, 105.355 213, 104.394 213 C 104.061 213, 102.484 214.098, 100.890 215.439 C 99.122 216.927, 96.139 218.112, 93.245 218.477 C 83.820 219.665, 80.329 221.201, 70.250 228.594 C 68.357 229.982, 67.744 230.032, 66.393 228.911 C 62.724 225.866, 67.535 211.747, 73.660 207.585 L 77.464 205 54.399 205 C 41.713 205, 31.033 205.300, 30.667 205.667" stroke="none" fill="#8d1616" fill-rule="evenodd"/></svg>