<svg xmlns="http://www.w3.org/2000/svg" width="271" height="194" viewBox="0 0 271 194" version="1.1"><path d="M 15 37 L 15 57 24.461 57 L 33.923 57 34.915 60.750 C 35.461 62.813, 42.509 90.937, 50.578 123.250 L 65.250 182 92.054 182 L 118.858 182 120.353 176.750 C 121.176 173.863, 124.732 160.491, 128.256 147.035 L 134.664 122.571 142.069 152.301 L 149.473 182.031 176.387 181.766 L 203.301 181.500 218.982 122 C 227.607 89.275, 234.973 61.263, 235.351 59.750 L 236.038 57 245.519 57 L 255 57 255 37 L 255 17 218.500 17 L 182 17 182 37 L 182 57 190.579 57 L 199.159 57 198.547 59.750 C 198.210 61.263, 195.327 72.150, 192.139 83.944 L 186.342 105.388 175.362 61.444 L 164.381 17.500 145.244 17.229 L 126.106 16.957 125.047 20.729 C 124.465 22.803, 119.179 42.390, 113.299 64.255 C 107.420 86.120, 102.304 103.670, 101.931 103.255 C 101.557 102.840, 98.765 92.375, 95.725 80 L 90.198 57.500 99.599 57.214 L 109 56.928 109 36.964 L 109 17 62 17 L 15 17 15 37 M 21 37 L 21 51 29.961 51 L 38.923 51 39.915 54.750 C 40.461 56.813, 47.511 84.946, 55.583 117.269 L 70.259 176.038 92.280 175.769 L 114.301 175.500 124.337 137.207 C 129.856 116.146, 134.670 99.496, 135.034 100.207 C 135.398 100.918, 139.927 118.268, 145.098 138.762 L 154.500 176.024 176.430 175.762 L 198.360 175.500 213.121 119.500 C 221.240 88.700, 228.634 60.688, 229.552 57.250 L 231.222 51 240.111 51 L 249 51 249 37 L 249 23 218.500 23 L 188 23 188 37 L 188 51 197.500 51 C 202.725 51, 207.008 51.337, 207.018 51.750 C 207.066 53.749, 186.510 128.844, 186.041 128.384 C 185.743 128.091, 179.623 104.373, 172.441 75.676 L 159.381 23.500 145.237 23.223 L 131.094 22.946 129.699 27.723 C 128.932 30.350, 122.498 54.208, 115.402 80.739 C 108.306 107.271, 102.251 128.984, 101.946 128.989 C 101.641 128.995, 97.111 111.563, 91.880 90.250 L 82.367 51.500 92.184 51.215 L 102 50.930 102 36.965 L 102 23 61.500 23 L 21 23 21 37" stroke="none" fill="#e9d2a3" fill-rule="evenodd"/><path d="M 21 37 L 21 51 29.961 51 L 38.923 51 39.915 54.750 C 40.461 56.813, 47.511 84.946, 55.583 117.269 L 70.259 176.038 92.280 175.769 L 114.301 175.500 124.337 137.207 C 129.856 116.146, 134.670 99.496, 135.034 100.207 C 135.398 100.918, 139.927 118.268, 145.098 138.762 L 154.500 176.024 176.430 175.762 L 198.360 175.500 213.121 119.500 C 221.240 88.700, 228.634 60.688, 229.552 57.250 L 231.222 51 240.111 51 L 249 51 249 37 L 249 23 218.500 23 L 188 23 188 37 L 188 51 197.500 51 C 202.725 51, 207.008 51.337, 207.018 51.750 C 207.066 53.749, 186.510 128.844, 186.041 128.384 C 185.743 128.091, 179.623 104.373, 172.441 75.676 L 159.381 23.500 145.237 23.223 L 131.094 22.946 129.699 27.723 C 128.932 30.350, 122.498 54.208, 115.402 80.739 C 108.306 107.271, 102.251 128.984, 101.946 128.989 C 101.641 128.995, 97.111 111.563, 91.880 90.250 L 82.367 51.500 92.184 51.215 L 102 50.930 102 36.965 L 102 23 61.500 23 L 21 23 21 37" stroke="none" fill="#343c74" fill-rule="evenodd"/></svg>